<?xml version="1.0" encoding="utf-8"?>
<!-- Generator: Adobe Illustrator 27.5.0, SVG Export Plug-In . SVG Version: 6.00 Build 0)  -->
<svg version="1.1" xmlns="http://www.w3.org/2000/svg" xmlns:xlink="http://www.w3.org/1999/xlink" x="0px" y="0px"
	 viewBox="0 120 500 350" style="enable-background:new 0 0 500 300;" xml:space="preserve">
<g id="BACKGROUND">
	<rect y="0.002" style="fill:#F5F0F0;" width="500" height="300"/>
	<rect y="0.001" style="fill:#FFFFFF;" width="500" height="300"/>
</g>
<g id="OBJECTS">
	<g>
		<g>
			<path style="fill:#A66843;" d="M96.642,207.849c0,2.061-1.67,3.732-3.732,3.732H73.962c-2.063,0-3.734-1.672-3.734-3.732V146.41
				c0-2.061,1.672-3.732,3.734-3.732h18.947c2.063,0,3.732,1.672,3.732,3.732V207.849z"/>
			<rect x="78.308" y="142.677" style="fill:#F2D3A0;" width="10.256" height="68.904"/>
			<path style="fill:#A66843;" d="M146.249,207.849c0,2.061-1.671,3.732-3.733,3.732h-18.948c-2.061,0-3.732-1.672-3.732-3.732
				V146.41c0-2.061,1.672-3.732,3.732-3.732h18.948c2.063,0,3.733,1.672,3.733,3.732V207.849z"/>
			<rect x="127.913" y="142.677" style="fill:#F2D3A0;" width="10.257" height="68.904"/>
		</g>
		<g>
			<path style="fill:#CC8152;" d="M54.254,229.551c-2.329,0-5.008,0-6.06,0c-1.05,0-3.989,1.007-3.989,4.895
				c0,3.887,0,28.155,0,31.854c0,3.696,3.888,9.764,10.049,9.764V229.551z"/>
			<path style="fill:#CC8152;" d="M162.225,229.551c2.329,0,5.008,0,6.06,0c1.05,0,3.989,1.007,3.989,4.895
				c0,3.887,0,28.155,0,31.854c0,3.696-3.886,9.764-10.049,9.764V229.551z"/>
		</g>
		<path style="fill:#F2D3A0;" d="M167.078,255.737c-1.265-13.343-10.364-84.492-12.388-91.318c-2.023-6.825-9.877-8.848-9.877-8.848
			h-36.574H71.663c0,0-7.854,2.023-9.875,8.848c-2.023,6.826-11.123,77.976-12.388,91.318c-1.265,13.343-2.258,24.972,11.131,24.972
			c13.392,0,47.708,0,47.708,0s34.316,0,47.705,0C169.336,280.708,168.342,269.079,167.078,255.737z"/>
		<path style="fill:#D1B37F;" d="M166.317,275.129c-3.115-20.899-6.401-41.369-7.292-45.873c-1.616-8.182-2.98-14.646-13.455-14.646
			c-10.479,0-37.333,0-37.333,0s-26.851,0-37.328,0c-10.479,0-11.841,6.465-13.457,14.646c-0.89,4.504-4.176,24.974-7.291,45.874
			c1.573,3.459,4.661,5.578,10.37,5.578c13.392,0,47.708,0,47.708,0s34.316,0,47.705,0
			C161.655,280.708,164.744,278.588,166.317,275.129z"/>
		<path style="fill:#A66843;" d="M160.791,270.577c0.247,1.97-1.198,3.604-3.233,3.604h-33.032c-2.036,0-3.482-1.635-3.235-3.604
			l2.838-22.633c0.178-1.412,1.674-2.535,3.347-2.535h27.134c1.672,0,3.168,1.123,3.346,2.535L160.791,270.577z"/>
		<g>
			<g>
				<g>
					<path style="fill:#A66843;" d="M96.969,255.112c-0.604,0-1.106-0.474-1.135-1.083c-2.015-41.898,7.843-68.081,7.942-68.341
						c0.227-0.586,0.88-0.878,1.471-0.653c0.584,0.226,0.879,0.883,0.653,1.471c-0.098,0.255-9.784,26.032-7.794,67.415
						c0.03,0.628-0.454,1.159-1.082,1.19C97.007,255.112,96.987,255.112,96.969,255.112z"/>
				</g>
				<path style="fill:#8F593A;" d="M99.888,252.139c0.422,0.415,0.427,1.095,0.012,1.516l0,0c-0.414,0.421-1.092,0.426-1.515,0.012
					l-4.181-4.118c-0.422-0.415-0.427-1.093-0.012-1.516l0,0c0.414-0.421,1.094-0.426,1.517-0.012L99.888,252.139z"/>
				<path style="fill:#8F593A;" d="M94.204,252.139c-0.422,0.415-0.427,1.095-0.012,1.516l0,0c0.416,0.421,1.094,0.426,1.517,0.012
					l4.18-4.118c0.421-0.415,0.427-1.093,0.011-1.516l0,0c-0.414-0.421-1.095-0.426-1.515-0.012L94.204,252.139z"/>
			</g>
			<g>
				<g>
					<path style="fill:#A66843;" d="M119.509,255.112c0.604,0,1.107-0.474,1.135-1.083c2.016-41.898-7.843-68.081-7.943-68.341
						c-0.225-0.586-0.879-0.878-1.469-0.653c-0.587,0.226-0.88,0.883-0.654,1.471c0.099,0.255,9.785,26.032,7.794,67.415
						c-0.03,0.628,0.455,1.159,1.081,1.19C119.472,255.112,119.489,255.112,119.509,255.112z"/>
				</g>
				<path style="fill:#8F593A;" d="M116.589,252.139c-0.422,0.415-0.426,1.095-0.012,1.516l0,0c0.416,0.421,1.094,0.426,1.518,0.012
					l4.179-4.118c0.423-0.415,0.428-1.093,0.012-1.516l0,0c-0.415-0.421-1.096-0.426-1.516-0.012L116.589,252.139z"/>
				<path style="fill:#8F593A;" d="M122.272,252.139c0.424,0.415,0.428,1.095,0.013,1.516l0,0c-0.415,0.421-1.094,0.426-1.516,0.012
					l-4.181-4.118c-0.422-0.415-0.426-1.093-0.012-1.516l0,0c0.415-0.421,1.094-0.426,1.518-0.012L122.272,252.139z"/>
			</g>
		</g>
		<path style="fill:#CC8152;" d="M70.888,150.975l-6.79,37.783c-1.046,5.825,2.143,10.756,7.169,10.756h73.945
			c5.026,0,8.215-4.931,7.168-10.756l-6.789-37.783H70.888z"/>
		<path style="fill:#A66843;" d="M95.188,270.577c0.247,1.97-1.199,3.604-3.236,3.604H58.923c-2.037,0-3.483-1.635-3.235-3.604
			l2.837-22.633c0.178-1.412,1.674-2.535,3.348-2.535h27.132c1.673,0,3.169,1.123,3.347,2.535L95.188,270.577z"/>
		<path style="fill:#CC8152;" d="M92.881,256.612c0,1.758-1.424,3.184-3.183,3.184H61.177c-1.758,0-3.182-1.426-3.182-3.184v-23.878
			c0-1.757,1.424-3.183,3.182-3.183h28.521c1.759,0,3.183,1.426,3.183,3.183V256.612z"/>
		<path style="fill:#CC8152;" d="M158.483,256.612c0,1.758-1.424,3.184-3.182,3.184H126.78c-1.759,0-3.183-1.426-3.183-3.184
			v-23.878c0-1.757,1.424-3.183,3.183-3.183h28.521c1.758,0,3.182,1.426,3.182,3.183V256.612z"/>
		<polygon style="fill:#E6A947;" points="114.496,228.523 108.239,235.254 101.982,228.523 101.982,150.975 114.496,150.975 		"/>
		<path style="fill:#F2D3A0;" d="M117.939,183.536c0,0.621-0.503,1.125-1.124,1.125H99.663c-0.621,0-1.125-0.504-1.125-1.125v-4.26
			c0-0.621,0.504-1.125,1.125-1.125h17.152c0.621,0,1.124,0.504,1.124,1.125V183.536z"/>
		<g>
			<path style="fill:#9C623F;" d="M109.628,189.605c0,0.769-0.621,1.391-1.389,1.391c-0.769,0-1.392-0.622-1.392-1.391
				c0-0.767,0.623-1.39,1.392-1.39C109.007,188.215,109.628,188.838,109.628,189.605z"/>
			<path style="fill:#9C623F;" d="M109.628,201.413c0,0.768-0.621,1.39-1.389,1.39c-0.769,0-1.392-0.622-1.392-1.39
				c0-0.769,0.623-1.391,1.392-1.391C109.007,200.023,109.628,200.645,109.628,201.413z"/>
			<path style="fill:#9C623F;" d="M109.628,213.22c0,0.768-0.621,1.39-1.389,1.39c-0.769,0-1.392-0.622-1.392-1.39
				c0-0.768,0.623-1.39,1.392-1.39C109.007,211.831,109.628,212.452,109.628,213.22z"/>
			<path style="fill:#9C623F;" d="M109.628,225.028c0,0.768-0.621,1.39-1.389,1.39c-0.769,0-1.392-0.621-1.392-1.39
				c0-0.769,0.623-1.391,1.392-1.391C109.007,223.637,109.628,224.259,109.628,225.028z"/>
		</g>
		<polygon style="fill:#E6A947;" points="79.212,264.841 75.437,268.901 71.663,264.841 71.663,229.551 79.212,229.551 		"/>
		<path style="fill:#F2D3A0;" d="M85.14,254.612c0,0.621-0.504,1.125-1.125,1.125H66.861c-0.621,0-1.125-0.504-1.125-1.125v-4.26
			c0-0.622,0.504-1.125,1.125-1.125h17.153c0.621,0,1.125,0.503,1.125,1.125V254.612z"/>
		<polygon style="fill:#E6A947;" points="144.815,264.841 141.04,268.901 137.266,264.841 137.266,229.551 144.815,229.551 		"/>
		<path style="fill:#F2D3A0;" d="M150.742,254.612c0,0.621-0.504,1.125-1.125,1.125h-17.153c-0.621,0-1.124-0.504-1.124-1.125v-4.26
			c0-0.622,0.503-1.125,1.124-1.125h17.153c0.621,0,1.125,0.503,1.125,1.125V254.612z"/>
	</g>
	<g>
		<polygon style="fill:#C7C4BC;" points="308.816,265.214 272.355,254.159 272.355,161.154 308.816,172.21 		"/>
		<polygon style="fill:#B0ADA5;" points="272.355,254.158 235.894,265.214 235.894,172.21 272.355,161.154 		"/>
		<polygon style="fill:#C7C4BC;" points="235.894,265.214 199.434,254.159 199.434,161.154 235.894,172.21 		"/>
		<g>
			<g>
				<polygon style="fill:#F5F1E8;" points="313.986,260.714 274.08,249.659 274.08,156.654 313.986,167.71 				"/>
				<polygon style="fill:#52BA60;" points="307.543,252.17 274.08,242.9 274.08,163.413 307.543,172.683 				"/>
			</g>
			<g>
				<polygon style="fill:#E0DDD4;" points="274.08,249.658 234.172,260.714 234.172,167.71 274.08,156.654 				"/>
				<polygon style="fill:#6FB8F2;" points="274.08,242.899 234.172,253.956 234.172,174.469 274.08,163.413 				"/>
				<path style="fill:#47A153;" d="M247.31,184.22c-5.49,2.286-8.648,2.392-13.139,0.084v69.651l39.908-11.057v-79.486
					l-19.764,5.475C251.722,176.182,250.9,182.726,247.31,184.22z"/>
			</g>
			<g>
				<polygon style="fill:#F5F1E8;" points="234.172,260.714 194.264,249.659 194.264,156.654 234.172,167.71 				"/>
				<polygon style="fill:#98CAF2;" points="234.172,253.956 200.709,244.686 200.709,165.199 234.172,174.469 				"/>
				<path style="fill:#52BA60;" d="M234.172,184.304c-0.781-0.834-1.598-1.751-2.479-2.788c-5.949-7.003-16.111-1.489-18.59,6.582
					c-1.994,6.493-6.559,10.664-12.395,11.367v45.221l33.463,9.27V184.304z"/>
			</g>
		</g>
		<g>
			<path style="fill:#D6D6D6;" d="M320.738,226.693c3.24-2.825-1.463-6.342-10.506-7.854c-9.041-1.511-18.996-0.444-22.236,2.381
				c-2.65,2.315,0.025,5.09,6.043,6.851l-0.881,5.668l10.307-4.094C310.934,230.14,318.088,229.007,320.738,226.693z"/>
			<path style="fill:#FA0F52;" d="M309.758,202.014c0-9.167-7.432-16.599-16.6-16.599s-16.598,7.432-16.598,16.599
				c0,7.505,4.983,13.841,11.82,15.893l4.777,15.831l4.779-15.832C304.773,215.854,309.758,209.519,309.758,202.014z"/>
			<circle style="fill:#FFFFFF;" cx="293.158" cy="202.014" r="7.93"/>
		</g>
	</g>
	<g>
		<g>
			<path style="fill:#D2D8DE;" d="M370.853,264.211c2.08,0.792,3.123,3.119,2.331,5.198l3.31,1.26
				c0.793-2.078,3.119-3.123,5.198-2.33c2.079,0.791,3.122,3.118,2.331,5.198l3.31,1.26c0.791-2.079,3.119-3.123,5.197-2.331
				c2.079,0.791,3.123,3.119,2.331,5.198l3.31,1.261c0.791-2.079,3.118-3.124,5.198-2.331c2.079,0.792,3.122,3.118,2.33,5.198
				l3.309,1.26c0.793-2.078,3.12-3.122,5.2-2.331c2.078,0.793,3.122,3.12,2.33,5.199l4.776,1.819l52.243-137.18l-4.776-1.82
				c-0.792,2.08-3.119,3.123-5.198,2.332c-2.079-0.793-3.122-3.119-2.332-5.198l-3.309-1.261c-0.792,2.079-3.119,3.123-5.197,2.331
				c-2.079-0.792-3.123-3.119-2.331-5.198l-3.309-1.261c-0.792,2.08-3.119,3.123-5.198,2.332c-2.079-0.792-3.122-3.12-2.33-5.198
				l-3.31-1.262c-0.791,2.08-3.12,3.124-5.198,2.332c-2.079-0.792-3.123-3.119-2.331-5.199l-3.31-1.26
				c-0.791,2.079-3.118,3.122-5.198,2.332c-2.079-0.793-3.122-3.12-2.331-5.2l-5.369-2.045l-52.243,137.18l5.369,2.046
				C366.447,264.464,368.775,263.419,370.853,264.211z"/>
			
				<rect x="353.233" y="180.529" transform="matrix(0.3559 -0.9345 0.9345 0.3559 74.5956 523.2892)" style="fill:none;stroke:#649DDE;stroke-miterlimit:10;" width="127.376" height="54"/>
			<g>
				<g>
					<line style="fill:none;stroke:#C4C9CF;stroke-miterlimit:10;" x1="396.262" y1="170.033" x2="397.196" y2="170.389"/>
					
						<line style="fill:none;stroke:#C4C9CF;stroke-miterlimit:10;stroke-dasharray:2.0421,2.0421;" x1="399.104" y1="171.115" x2="455.401" y2="192.555"/>
					<line style="fill:none;stroke:#C4C9CF;stroke-miterlimit:10;" x1="456.355" y1="192.919" x2="457.29" y2="193.275"/>
				</g>
			</g>
			
				<text transform="matrix(0.9345 0.3559 -0.3559 0.9345 419.4358 161.5677)" style="fill:#525252; font-family:'TrashHand'; font-size:14.5794px;">ticket</text>
			
				<rect x="429.63" y="151.067" transform="matrix(0.356 -0.9345 0.9345 0.356 116.2449 513.0675)" style="fill:#525252;" width="1.498" height="42.25"/>
			
				<rect x="428.117" y="164.288" transform="matrix(0.3554 -0.9347 0.9347 0.3554 111.78 514.4183)" style="fill:#525252;" width="1.5" height="23.75"/>
			
				<rect x="401.631" y="205.109" transform="matrix(0.3559 -0.9345 0.9345 0.3559 76.9719 523.1475)" style="fill:#525252;" width="32.75" height="1.25"/>
			
				<rect x="397.659" y="203.597" transform="matrix(0.3559 -0.9345 0.9345 0.3559 75.8243 518.4594)" style="fill:#525252;" width="32.75" height="1.25"/>
			
				<rect x="393.687" y="202.084" transform="matrix(0.3559 -0.9345 0.9345 0.3559 74.6981 513.7918)" style="fill:#525252;" width="32.75" height="1.25"/>
			
				<rect x="400.139" y="193.387" transform="matrix(0.3559 -0.9345 0.9345 0.3559 82.0031 507.0086)" style="fill:#525252;" width="17.375" height="1.25"/>
			
				<rect x="387.084" y="243.308" transform="matrix(0.3559 -0.9345 0.9345 0.3559 31.9128 534.1673)" style="fill:#525252;" width="32.751" height="1.249"/>
			
				<rect x="383.112" y="241.796" transform="matrix(0.3559 -0.9345 0.9345 0.3559 30.7545 529.4636)" style="fill:#525252;" width="32.75" height="1.25"/>
			
				<rect x="379.141" y="240.283" transform="matrix(0.3559 -0.9345 0.9345 0.3559 29.6128 524.7816)" style="fill:#525252;" width="32.749" height="1.25"/>
			
				<rect x="385.592" y="231.586" transform="matrix(0.3559 -0.9345 0.9345 0.3559 36.9517 518.0344)" style="fill:#525252;" width="17.375" height="1.25"/>
			
				<rect x="385.178" y="227.067" transform="matrix(0.3559 -0.9345 0.9345 0.3559 57.6891 541.9424)" style="fill:#525252;" width="73.625" height="4.109"/>
		</g>
		<g>
			<path style="fill:#E8EEF5;" d="M371.192,264.694c2.151,0.568,3.435,2.772,2.867,4.923l3.424,0.903
				c0.568-2.15,2.772-3.435,4.923-2.866c2.151,0.567,3.435,2.772,2.867,4.923l3.424,0.903c0.567-2.151,2.773-3.435,4.923-2.867
				s3.435,2.772,2.867,4.923l3.424,0.904c0.567-2.151,2.771-3.436,4.923-2.867c2.151,0.567,3.435,2.772,2.866,4.923l3.424,0.903
				c0.568-2.15,2.772-3.435,4.924-2.867c2.15,0.568,3.435,2.772,2.867,4.924l4.941,1.304l37.459-141.931l-4.942-1.305
				c-0.567,2.151-2.772,3.435-4.923,2.867c-2.15-0.568-3.435-2.771-2.867-4.923l-3.424-0.903c-0.567,2.15-2.771,3.435-4.922,2.866
				c-2.151-0.567-3.436-2.771-2.867-4.923l-3.424-0.903c-0.568,2.151-2.773,3.435-4.924,2.867c-2.15-0.567-3.434-2.773-2.866-4.923
				l-3.424-0.904c-0.567,2.151-2.773,3.436-4.923,2.867c-2.151-0.567-3.435-2.771-2.867-4.923l-3.424-0.903
				c-0.567,2.15-2.771,3.435-4.923,2.867c-2.151-0.568-3.435-2.772-2.867-4.924l-5.556-1.466l-37.459,141.931l5.556,1.467
				C366.837,265.411,369.042,264.126,371.192,264.694z"/>
			
				<rect x="347.327" y="176.462" transform="matrix(0.2552 -0.9669 0.9669 0.2552 109.4026 548.9465)" style="fill:none;stroke:#6EADF5;stroke-miterlimit:10;" width="127.375" height="54"/>
			<g>
				<g>
					<line style="fill:none;stroke:#C4C9CF;stroke-miterlimit:10;" x1="386.509" y1="168.358" x2="387.476" y2="168.613"/>
					
						<line style="fill:none;stroke:#C4C9CF;stroke-miterlimit:10;stroke-dasharray:2.0421,2.0421;" x1="389.45" y1="169.134" x2="447.697" y2="184.507"/>
					<line style="fill:none;stroke:#C4C9CF;stroke-miterlimit:10;" x1="448.684" y1="184.768" x2="449.651" y2="185.023"/>
				</g>
			</g>
			
				<text transform="matrix(0.9669 0.2552 -0.2552 0.9669 408.5747 157.4503)" style="fill:#525252; font-family:'TrashHand'; font-size:14.5794px;">ticket</text>
			
				<rect x="419.914" y="145.776" transform="matrix(0.2554 -0.9668 0.9668 0.2554 151.8655 530.9909)" style="fill:#525252;" width="1.499" height="42.25"/>
			
				<rect x="418.829" y="159.135" transform="matrix(0.2551 -0.9669 0.9669 0.2551 147.2085 533.095)" style="fill:#525252;" width="1.501" height="23.75"/>
			
				<rect x="395.528" y="200.938" transform="matrix(0.2552 -0.9669 0.9669 0.2552 111.902 548.393)" style="fill:#525252;" width="32.75" height="1.25"/>
			
				<rect x="391.419" y="199.853" transform="matrix(0.2552 -0.9669 0.9669 0.2552 109.8896 543.6118)" style="fill:#525252;" width="32.75" height="1.25"/>
			
				<rect x="387.31" y="198.768" transform="matrix(0.2552 -0.9669 0.9669 0.2552 107.8873 538.8386)" style="fill:#525252;" width="32.75" height="1.25"/>
			
				<rect x="392.849" y="190.251" transform="matrix(0.2552 -0.9669 0.9669 0.2552 114.5186 530.4146)" style="fill:#525252;" width="17.375" height="1.25"/>
			
				<rect x="385.098" y="240.46" transform="matrix(0.2552 -0.9669 0.9669 0.2552 65.9203 567.7442)" style="fill:#525252;" width="32.75" height="1.249"/>
			
				<rect x="380.989" y="239.375" transform="matrix(0.2552 -0.9669 0.9669 0.2552 63.9047 562.9601)" style="fill:#525252;" width="32.75" height="1.249"/>
			
				<rect x="376.88" y="238.291" transform="matrix(0.2552 -0.9669 0.9669 0.2552 61.8935 558.1795)" style="fill:#525252;" width="32.749" height="1.249"/>
			
				<rect x="382.419" y="229.773" transform="matrix(0.2552 -0.9669 0.9669 0.2552 68.537 549.7666)" style="fill:#525252;" width="17.375" height="1.249"/>
			
				<rect x="381.524" y="222.343" transform="matrix(0.2552 -0.9669 0.9669 0.2552 94.6185 571.6246)" style="fill:#525252;" width="73.625" height="4.109"/>
		</g>
		<path style="fill:#A66843;" d="M415.625,166.79l-60.36-1.897v89.19l60.36,1.898c2.785,0.088,5.044-2.044,5.044-4.761V171.87
			C420.669,169.153,418.41,166.878,415.625,166.79z"/>
		<path style="fill:#F5F1E8;" d="M414.163,164.893h-58.898v89.19h58.898c2.718,0,4.921-2.203,4.921-4.919v-79.352
			C419.084,167.096,416.881,164.893,414.163,164.893z"/>
		<g>
			<path style="fill:#CC8152;" d="M410.956,161.391l-55.691,3.502v89.19l55.691-3.502c2.57-0.161,4.653-2.495,4.653-5.212v-79.351
				C415.609,163.301,413.526,161.23,410.956,161.391z"/>
			<g>
				<path style="fill:none;stroke:#F2D3A0;stroke-width:2;stroke-miterlimit:10;" d="M402.159,192.367
					c0,9.768-7.486,18.157-16.723,18.737c-9.235,0.58-16.721-6.867-16.721-16.635c0-9.767,7.485-18.156,16.721-18.736
					C394.673,175.153,402.159,182.6,402.159,192.367z"/>
				<g>
					<path style="fill:none;stroke:#F2D3A0;stroke-width:2;stroke-miterlimit:10;" d="M397.934,180.886
						c-3.062,3.833-7.527,6.408-12.498,6.721c-4.972,0.311-9.435-1.701-12.496-5.15"/>
					<path style="fill:none;stroke:#F2D3A0;stroke-width:2;stroke-miterlimit:10;" d="M372.94,205.952
						c3.062-3.835,7.524-6.409,12.496-6.722c4.973-0.313,9.438,1.7,12.5,5.151"/>
				</g>
				
					<line style="fill:none;stroke:#F2D3A0;stroke-width:2;stroke-miterlimit:10;" x1="385.436" y1="175.733" x2="385.436" y2="211.104"/>
				
					<line style="fill:none;stroke:#F2D3A0;stroke-width:2;stroke-miterlimit:10;" x1="402.159" y1="192.367" x2="368.714" y2="194.469"/>
			</g>
			
				<text transform="matrix(0.9456 -0.0595 0 1 365.0947 233.6473)" style="fill:#F2D3A0; font-family:'TrashHand'; font-size:14.7413px;">passport</text>
			<path style="fill:#F2D3A0;" d="M366.49,241.425c0,0,0.56-0.254,1.638-0.643c0.533-0.188,1.181-0.461,1.918-0.677
				c0.738-0.234,1.57-0.497,2.479-0.785c0.909-0.28,1.908-0.502,2.953-0.783c1.051-0.264,2.151-0.579,3.31-0.771
				c1.151-0.222,2.343-0.449,3.553-0.682c1.207-0.273,2.45-0.34,3.683-0.514c1.234-0.148,2.469-0.296,3.685-0.443
				c1.216-0.096,2.413-0.114,3.57-0.174c1.158-0.048,2.276-0.095,3.336-0.141c1.061-0.086,2.058,0.037,2.979,0.055
				c3.68,0.164,6.132,0.272,6.132,0.272c0.282,0.013,0.486,0.265,0.459,0.564c-0.028,0.292-0.271,0.521-0.544,0.52h-0.044
				c0,0-2.433-0.023-6.082-0.056c-0.911,0.014-1.896-0.074-2.943,0.048c-1.046,0.081-2.149,0.166-3.29,0.254
				c-1.14,0.098-2.318,0.157-3.513,0.293c-1.193,0.186-2.404,0.373-3.615,0.563c-1.208,0.212-2.426,0.318-3.603,0.627
				c-1.181,0.27-2.342,0.534-3.466,0.788c-1.129,0.226-2.196,0.572-3.213,0.866c-1.016,0.307-1.984,0.557-2.858,0.86
				c-0.873,0.308-1.673,0.591-2.382,0.842c-0.718,0.236-1.298,0.508-1.795,0.701c-0.979,0.385-1.564,0.672-1.564,0.672
				c-0.593,0.291-1.267,0.03-1.508-0.583c-0.24-0.611,0.046-1.344,0.639-1.635c0.011-0.005,0.02-0.01,0.027-0.013L366.49,241.425z"
				/>
		</g>
	</g>
	<g>
		<path style="fill:#474747;" d="M266.949,318.546c-0.07,1.924-0.212,4.275-0.805,6.855c-0.589,2.572-1.844,5.33-3.817,7.686
			c-0.218,0.285-0.504,0.596-0.805,0.915c-0.364,0.387-0.376,0.404-0.706,0.634c-0.542,0.362-1.286,0.688-2.088,0.935
			c-1.597,0.529-3.413,0.851-5.278,1.115c-3.743,0.535-7.787,0.812-11.967,0.823c-4.17,0.026-8.547-0.189-12.769-0.98
			c-0.508-0.101-1.063-0.227-1.495-0.364c-0.211-0.059-0.472-0.164-0.734-0.27c-0.155-0.081-0.364-0.18-0.54-0.306
			c-0.737-0.49-1.398-1.268-1.936-2.14c-1.119-1.74-1.836-3.817-2.459-5.888c-0.609-2.084-1.067-4.228-1.402-6.373
			c-0.349-2.111-0.663-4.321-0.684-6.223c-0.167-3.008,3.336-5.454,6.818-6.317c0.744-0.187,1.654-0.27,2.675-0.346
			c1.009-0.057,2.008-0.112,2.994-0.166c2.01-0.055,3.975-0.108,5.888-0.158c3.837-0.08,7.479-0.09,10.831-0.051
			c3.331,0.04,6.47,0.128,9.039,0.303c2.675,0.169,4.61,0.663,6.19,1.35c1.545,0.67,2.396,1.513,2.685,2.045
			c0.168,0.369,0.178,0.223,0.242,0.558c0.027,0.205,0.043,0.324,0.05,0.373C266.904,313.011,267.016,315.133,266.949,318.546z"/>
		<path style="opacity:0.5;fill:#FFFDFA;" d="M233.442,336.89l16.593-30.074c-1.915-0.081-7.414,0.041-9.604,0.014
			c-1.169-0.014-2.417-0.014-3.653-0.014l-13.114,26.059C226.636,337.117,230.289,336.867,233.442,336.89z"/>
		<path style="fill:#2B2B2B;" d="M268.669,312.863c0,0-0.005-0.13-0.014-0.391c0.011-0.193-0.148-1.098-0.418-1.65
			c-0.556-1.317-1.895-2.733-3.772-3.774c-1.823-1.067-4.444-1.818-7.102-2.019c-2.747-0.25-5.643-0.385-8.884-0.492
			c-3.224-0.105-6.71-0.171-10.406-0.169c-1.848-0.013-3.752,0.048-5.703,0.106c-0.986,0.054-1.984,0.108-2.992,0.159
			c-0.988,0.074-2.115,0.15-3.352,0.456c-2.108,0.589-4.146,1.542-5.975,3.055c-2.239,0.353-6.022,0.949-7.212,1.136
			c-1.727,0.274-3.262,0.659-3.597,2.194c-0.335,1.533-0.144,4.983,0.287,6.065c0.432,1.079,2.783,1.288,4.27,1.758
			c1.072,0.342,2.735,1.183,3.581,1.623c0.62,2.541,1.475,4.975,2.48,7.414c0.874,2.037,1.92,4.016,3.286,5.867
			c0.702,0.908,1.504,1.803,2.597,2.478c0.275,0.171,0.558,0.304,0.893,0.439c0.245,0.088,0.49,0.176,0.803,0.254
			c0.598,0.176,1.102,0.285,1.647,0.392c4.273,0.764,8.423,0.895,12.465,1.052c4.04,0.083,7.951,0.022,11.684-0.392
			c1.865-0.233,3.68-0.512,5.46-1.056c0.888-0.266,1.772-0.599,2.657-1.16c0.398-0.221,0.984-0.787,1.174-1.034
			c0.265-0.302,0.532-0.607,0.809-0.978c2.138-2.797,3.026-5.839,3.681-8.433c0.667-2.612,0.955-4.919,1.2-6.811
			c0.411-3.785,0.458-5.943,0.458-5.948L268.669,312.863z M265.706,318.764c-0.065,1.823-0.2,4.053-0.763,6.499
			c-0.557,2.436-1.746,5.049-3.616,7.283c-0.207,0.268-0.477,0.565-0.763,0.865c-0.346,0.367-0.357,0.385-0.67,0.601
			c-0.513,0.344-1.218,0.652-1.977,0.888c-1.514,0.499-3.235,0.803-5.002,1.057c-3.548,0.506-7.381,0.767-11.342,0.78
			c-3.951,0.025-8.099-0.18-12.099-0.931c-0.483-0.095-1.009-0.216-1.418-0.346c-0.2-0.055-0.447-0.153-0.694-0.257
			c-0.148-0.074-0.347-0.169-0.513-0.288c-0.699-0.465-1.324-1.2-1.835-2.027c-1.061-1.647-1.739-3.619-2.331-5.579
			c-0.575-1.977-1.012-4.009-1.328-6.038c-0.331-2.001-0.63-4.097-0.647-5.899c-0.157-2.851,3.16-5.166,6.461-5.983
			c0.705-0.181,1.568-0.257,2.535-0.331c0.955-0.052,1.902-0.105,2.837-0.157c1.904-0.052,3.768-0.102,5.58-0.148
			c3.637-0.076,7.088-0.085,10.264-0.05c3.156,0.038,6.131,0.122,8.566,0.29c2.535,0.158,4.37,0.625,5.867,1.277
			c1.463,0.634,2.271,1.434,2.545,1.938c0.159,0.35,0.168,0.211,0.229,0.526c0.025,0.197,0.041,0.31,0.048,0.358
			C265.663,313.519,265.771,315.529,265.706,318.764z"/>
		<path style="fill:#474747;" d="M283.546,312.557c0.007-0.049,0.022-0.168,0.05-0.373c0.064-0.335,0.074-0.188,0.242-0.558
			c0.288-0.532,1.14-1.375,2.684-2.045c1.58-0.687,3.516-1.181,6.191-1.35c2.569-0.175,5.708-0.263,9.039-0.303
			c3.353-0.039,6.994-0.029,10.831,0.051c1.913,0.05,3.878,0.104,5.888,0.158c0.987,0.054,1.985,0.109,2.994,0.166
			c1.021,0.076,1.932,0.159,2.676,0.346c3.482,0.863,6.984,3.31,6.817,6.317c-0.02,1.901-0.335,4.111-0.683,6.223
			c-0.335,2.145-0.794,4.289-1.403,6.373c-0.623,2.07-1.34,4.147-2.459,5.888c-0.537,0.872-1.198,1.649-1.936,2.14
			c-0.176,0.126-0.385,0.225-0.54,0.306c-0.263,0.105-0.523,0.211-0.734,0.27c-0.432,0.138-0.987,0.264-1.495,0.364
			c-4.222,0.792-8.599,1.007-12.769,0.98c-4.18-0.012-8.224-0.288-11.966-0.823c-1.866-0.265-3.683-0.586-5.278-1.115
			c-0.803-0.247-1.547-0.572-2.089-0.935c-0.33-0.229-0.342-0.247-0.706-0.634c-0.301-0.319-0.587-0.63-0.805-0.915
			c-1.974-2.356-3.228-5.114-3.817-7.686c-0.593-2.58-0.734-4.932-0.805-6.855C283.406,315.133,283.518,313.011,283.546,312.557z"/>
		<path style="opacity:0.5;fill:#FFFDFA;" d="M312.583,307.98c-3.837-0.08-7.478-0.09-10.831-0.051
			c-0.888,0.011-1.755,0.024-2.609,0.042L287.149,331.8c0.304,0.436,0.601,0.874,0.946,1.288c0.218,0.285,0.504,0.596,0.805,0.915
			c0.364,0.387,0.376,0.404,0.706,0.634c0.542,0.362,1.286,0.688,2.089,0.935c1.596,0.529,3.412,0.851,5.278,1.115
			c0.812,0.117,1.684,0.174,2.52,0.266l14.562-28.932C313.57,308.007,313.062,307.994,312.583,307.98z"/>
		<path style="fill:#2B2B2B;" d="M281.75,313.002c0,0.005,0.047,2.163,0.458,5.948c0.245,1.893,0.533,4.199,1.201,6.811
			c0.653,2.594,1.542,5.636,3.68,8.433c0.276,0.37,0.544,0.676,0.809,0.978c0.189,0.247,0.775,0.814,1.173,1.034
			c0.886,0.561,1.77,0.895,2.657,1.16c1.78,0.544,3.595,0.822,5.461,1.056c3.732,0.414,7.643,0.475,11.683,0.392
			c4.042-0.157,8.191-0.288,12.465-1.052c0.546-0.106,1.05-0.216,1.647-0.392c0.313-0.078,0.558-0.166,0.803-0.254
			c0.335-0.135,0.618-0.268,0.893-0.439c1.093-0.675,1.896-1.569,2.597-2.478c1.366-1.852,2.412-3.83,3.286-5.867
			c1.005-2.439,1.859-4.873,2.48-7.414c0.846-0.44,2.509-1.281,3.581-1.623c1.486-0.47,3.838-0.679,4.27-1.758
			c0.432-1.081,0.622-4.531,0.287-6.065c-0.335-1.535-1.87-1.92-3.597-2.194c-1.189-0.186-4.973-0.782-7.211-1.136
			c-1.83-1.513-3.867-2.466-5.976-3.055c-1.236-0.306-2.362-0.382-3.352-0.456c-1.008-0.052-2.006-0.105-2.992-0.159
			c-1.951-0.059-3.855-0.119-5.703-0.106c-3.696-0.002-7.183,0.063-10.406,0.169c-3.241,0.108-6.137,0.242-8.884,0.492
			c-2.657,0.2-5.278,0.951-7.102,2.019c-1.877,1.041-3.217,2.457-3.772,3.774c-0.27,0.553-0.429,1.457-0.418,1.65
			c-0.009,0.261-0.014,0.391-0.014,0.391L281.75,313.002z M284.784,313.09c0.007-0.048,0.022-0.16,0.048-0.358
			c0.061-0.315,0.069-0.176,0.23-0.526c0.273-0.504,1.081-1.304,2.544-1.938c1.497-0.652,3.332-1.119,5.867-1.277
			c2.435-0.168,5.409-0.252,8.565-0.29c3.176-0.035,6.627-0.026,10.264,0.05c1.813,0.047,3.676,0.097,5.58,0.148
			c0.936,0.052,1.882,0.105,2.837,0.157c0.967,0.074,1.83,0.15,2.536,0.331c3.3,0.817,6.617,3.133,6.46,5.983
			c-0.018,1.803-0.316,3.898-0.647,5.899c-0.316,2.029-0.753,4.061-1.328,6.038c-0.591,1.96-1.271,3.932-2.331,5.579
			c-0.511,0.827-1.136,1.563-1.835,2.027c-0.166,0.119-0.363,0.214-0.512,0.288c-0.248,0.104-0.495,0.202-0.695,0.257
			c-0.409,0.13-0.935,0.251-1.418,0.346c-3.999,0.751-8.146,0.955-12.099,0.931c-3.961-0.014-7.794-0.274-11.342-0.78
			c-1.767-0.254-3.488-0.558-5.001-1.057c-0.76-0.235-1.466-0.544-1.978-0.888c-0.313-0.216-0.324-0.233-0.67-0.601
			c-0.285-0.301-0.556-0.598-0.762-0.865c-1.871-2.234-3.06-4.847-3.617-7.283c-0.563-2.446-0.697-4.676-0.763-6.499
			C284.652,315.529,284.76,313.519,284.784,313.09z"/>
		<path style="fill:#2B2B2B;" d="M283.007,317.255c-3.885-2.373-11.582-2.904-16.33,0c-1.019-1.018,0-6.645,0-6.645h16.33
			C283.007,310.611,283.91,316.136,283.007,317.255z"/>
	</g>
	<g>
		<g>
			
				<rect x="88.552" y="333.714" transform="matrix(0.4557 -0.8901 0.8901 0.4557 -258.643 317.1285)" style="fill:#D0D5DB;" width="82.882" height="72.684"/>
			
				<rect x="93.839" y="339.351" transform="matrix(0.4557 -0.8901 0.8901 0.4557 -258.7977 317.1362)" style="fill:#37393B;" width="72.173" height="61.675"/>
		</g>
		<g>
			
				<rect x="74.508" y="331.072" transform="matrix(0.0803 -0.9968 0.9968 0.0803 -259.5872 453.4875)" style="fill:#E8EEF5;" width="82.884" height="72.684"/>
			
				<rect x="80.017" y="336.573" transform="matrix(0.0803 -0.9968 0.9968 0.0803 -259.5824 453.4905)" style="fill:#3E4042;" width="71.868" height="61.675"/>
		</g>
		<g>
			<path style="fill:#21A6FF;" d="M214.2,432.111c-0.303-4.273-4.367-8.414-7.099-11.337c-5.092-5.448-11.068-10.092-17.124-14.407
				c-12.954-9.227-27.518-17.235-42.906-21.511c-1.204-0.606-4.773,0.77-4.506,1.217c4.485,7.507,9.691,14.64,15.144,21.466
				c9.109,11.399,19.955,23.115,33.688,28.81C196.008,438.262,214.884,441.772,214.2,432.111z M209.101,435.139
				c-1.934,4.559-11.994,0.44-14.914-0.843c-6.812-2.994-12.755-7.881-18.14-12.929c-9.972-9.348-18.406-20.434-25.882-31.839
				c-0.248-0.38-0.492-0.762-0.739-1.141c14.092,4.917,27.305,12.798,39.204,21.615c5.687,4.213,11.186,8.844,15.829,14.204
				C206.625,426.707,210.662,431.461,209.101,435.139z"/>
			<path style="fill:#2E2F30;" d="M145.694,388.984c0.276,1.557-0.764,3.042-2.32,3.316l0,0c-1.557,0.275-3.042-0.763-3.317-2.321
				l-0.78-4.409c-0.275-1.555,0.764-3.042,2.321-3.316l0,0c1.556-0.275,3.042,0.764,3.317,2.321L145.694,388.984z"/>
			<path style="fill:#525457;" d="M59.025,386.555c0.153,0.864-0.423,1.689-1.286,1.841l-8.126,1.435
				c-0.862,0.153-1.687-0.425-1.84-1.288l-0.691-3.918c-0.153-0.863,0.424-1.687,1.286-1.84l8.126-1.435
				c0.864-0.153,1.687,0.423,1.84,1.287L59.025,386.555z"/>
			<path style="fill:#525457;" d="M106.358,364.792l-15.194,2.684c-0.711,0.126-1.395,0.856-1.535,1.674l-1.959,11.359l26.442-4.67
				l-5.732-10.002C107.966,365.116,107.07,364.666,106.358,364.792z"/>
			<path style="fill:#C1C6CC;" d="M149.803,428.697c0.477,2.701-1.326,5.276-4.026,5.754l-92.887,16.41
				c-2.7,0.477-5.276-1.325-5.754-4.026l-9.62-54.458c-0.478-2.701,1.325-5.277,4.026-5.755l92.885-16.409
				c2.702-0.477,5.278,1.326,5.756,4.026L149.803,428.697z"/>
			<path style="fill:#AEB2B8;" d="M134.427,370.213l-92.885,16.409c-2.701,0.477-4.504,3.054-4.026,5.755l3.695,20.92
				l102.667-18.138l-3.695-20.92C139.706,371.539,137.13,369.736,134.427,370.213z"/>
			<path style="fill:#95999E;" d="M129.263,404.247c2.249,12.728-6.247,24.87-18.977,27.119
				c-12.728,2.249-24.869-6.247-27.118-18.975c-2.249-12.729,6.246-24.87,18.975-27.119
				C114.873,383.022,127.015,391.519,129.263,404.247z"/>
			<path style="fill:#525457;" d="M124.765,405.042c1.81,10.245-5.028,20.016-15.273,21.827
				c-10.245,1.809-20.017-5.027-21.826-15.273c-1.811-10.245,5.026-20.017,15.272-21.826
				C113.182,387.96,122.955,394.797,124.765,405.042z"/>
			<path style="fill:#3E4042;" d="M115.101,406.749c0.867,4.908-2.409,9.588-7.317,10.455c-4.907,0.868-9.587-2.408-10.454-7.315
				c-0.867-4.907,2.409-9.588,7.316-10.455C109.553,398.566,114.233,401.842,115.101,406.749z"/>
			<path style="fill:#FFFFFF;" d="M117.074,399.895c0.461,2.608-1.281,5.098-3.89,5.559c-2.609,0.461-5.099-1.282-5.559-3.89
				c-0.461-2.61,1.281-5.1,3.89-5.56C114.125,395.543,116.613,397.285,117.074,399.895z"/>
			
				<rect x="47.464" y="392.894" transform="matrix(0.9847 -0.174 0.174 0.9847 -68.0141 15.444)" style="fill:#525457;" width="13.222" height="5.465"/>
			
				<rect x="130.074" y="379.035" transform="matrix(0.9847 -0.174 0.174 0.9847 -64.4181 28.8903)" style="fill:#525457;" width="4.907" height="5.465"/>
		</g>
	</g>
	<g>
		<g>
			<path style="fill:#707378;" d="M347.552,431.116c-0.433,2.034-2.433,3.33-4.467,2.895l-82.105-17.512
				c-2.034-0.434-3.329-2.434-2.896-4.466l10.158-47.623c0.434-2.033,2.433-3.33,4.467-2.895l82.105,17.512
				c2.034,0.434,3.331,2.434,2.896,4.466L347.552,431.116z"/>
			
				<rect x="304.64" y="339.699" transform="matrix(0.2086 -0.978 0.978 0.2086 -131.2106 608.7308)" style="fill:#3C3D40;" width="11.773" height="91.481"/>
		</g>
		<path style="fill:#4D4F52;" d="M327.667,438.922c0,2.079-1.686,3.764-3.765,3.764H239.95c-2.079,0-3.764-1.685-3.764-3.764
			v-48.694c0-2.079,1.685-3.764,3.764-3.764h83.952c2.079,0,3.765,1.685,3.765,3.764V438.922z"/>
		<text transform="matrix(1 0 0 1 242.7827 426.2461)" style="fill:#B5B9C2; font-family:'TrashHand'; font-size:9.7426px;">0000000 000 000</text>
		<g>
			<text transform="matrix(1 0 0 1 283.9551 432.668)" style="fill:#B5B9C2; font-family:'TrashHand'; font-size:5.0648px;">00/00</text>
		</g>
		<g>
			<text transform="matrix(1 0 0 1 243.416 432.668)" style="fill:#B5B9C2; font-family:'TrashHand'; font-size:5.0648px;">George r. hart</text>
		</g>
		<path style="fill:#FFE96A;" d="M256.362,409.974c0,0.973-0.79,1.762-1.763,1.762h-10.14c-0.974,0-1.763-0.789-1.763-1.762v-6.32
			c0-0.973,0.789-1.762,1.763-1.762h10.14c0.973,0,1.763,0.789,1.763,1.762V409.974z"/>
		<g>
			<path style="fill:#FF6A99;" d="M309.607,427.059c0-2.109,0.933-3.996,2.402-5.286c-1.238-1.088-2.858-1.751-4.634-1.751
				c-3.885,0-7.036,3.15-7.036,7.036c0,3.886,3.151,7.037,7.036,7.037c1.776,0,3.396-0.664,4.634-1.751
				C310.54,431.055,309.607,429.168,309.607,427.059z"/>
			<path style="fill:#FFE96A;" d="M316.644,420.022c-1.777,0-3.396,0.663-4.635,1.751c1.47,1.289,2.402,3.176,2.402,5.286
				s-0.932,3.996-2.402,5.286c1.239,1.088,2.858,1.751,4.635,1.751c3.885,0,7.036-3.151,7.036-7.037
				C323.68,423.172,320.53,420.022,316.644,420.022z"/>
			<path style="fill:#FFAB6A;" d="M314.412,427.059c0-2.109-0.932-3.996-2.402-5.286c-1.469,1.289-2.402,3.176-2.402,5.286
				s0.933,3.996,2.402,5.286C313.48,431.055,314.412,429.168,314.412,427.059z"/>
		</g>
	</g>
	<g>
		
			<rect x="363.491" y="350.991" transform="matrix(0.1705 -0.9854 0.9854 0.1705 -24.9028 740.0656)" style="fill:#369973;" width="127.272" height="67.667"/>
		
			<rect x="358.072" y="350.053" transform="matrix(0.1706 -0.9853 0.9853 0.1706 -28.4788 733.941)" style="fill:#43BF8F;" width="127.272" height="67.667"/>
		<path style="fill:#369973;" d="M439.669,431.587l14.988-86.591c-6.264-1.084-10.462-7.039-9.378-13.303l-28.229-4.886
			c-1.084,6.263-7.04,10.461-13.303,9.377l-14.988,86.591c6.264,1.084,10.462,7.039,9.378,13.303l28.229,4.887
			C427.45,434.702,433.406,430.503,439.669,431.587z"/>
		<path style="fill:#43BF8F;" d="M438.736,386.833c-1.628,9.405-10.571,15.709-19.976,14.081
			c-9.404-1.627-15.709-10.571-14.081-19.977c1.628-9.403,10.571-15.708,19.976-14.08
			C434.059,368.486,440.364,377.429,438.736,386.833z"/>
		
			<rect x="423.125" y="322.837" transform="matrix(0.1706 -0.9853 0.9853 0.1706 6.8757 721.5087)" style="fill:#BDA57D;" width="17.75" height="67.667"/>
		
			<rect x="417.706" y="321.899" transform="matrix(0.1705 -0.9854 0.9854 0.1705 3.3099 715.3966)" style="fill:#F2D3A0;" width="17.75" height="67.667"/>
		<g>
			
				<text transform="matrix(0.9853 0.1705 -0.1705 0.9853 408.2794 355.8568)" style="fill:#393A3D; font-family:'TrashHand'; font-size:8.6203px;">Cash money</text>
		</g>
	</g>
</g>
</svg>
