<svg width="24" height="26" viewBox="0 0 24 26" fill="none" xmlns="http://www.w3.org/2000/svg">
<path d="M21.1665 23.2002L22.9998 25.0002" stroke="white" stroke-width="2" stroke-linecap="round" stroke-linejoin="round"/>
<path d="M14.4448 20.1996C14.4448 22.1879 16.0864 23.7996 18.1115 23.7996C19.1258 23.7996 20.0438 23.3952 20.7076 22.7418C21.3692 22.0906 21.7782 21.192 21.7782 20.1996C21.7782 18.2113 20.1366 16.5996 18.1115 16.5996C16.0864 16.5996 14.4448 18.2113 14.4448 20.1996Z" stroke="white" stroke-width="2" stroke-linecap="round" stroke-linejoin="round"/>
<path d="M20.5556 13V5.49824C20.5556 5.30728 20.4783 5.12415 20.3408 4.98911L16.4925 1.21089C16.355 1.07585 16.1685 1 15.9741 1H1.73333C1.32833 1 1 1.32236 1 1.72V24.28C1 24.6777 1.32833 25 1.73333 25H9.55555" stroke="white" stroke-width="2" stroke-linecap="round" stroke-linejoin="round"/>
<path d="M15.6665 5.08V1.42426C15.6665 1.18995 15.86 1 16.0987 1C16.2132 1 16.3231 1.0447 16.4042 1.12426L20.4288 5.07574C20.5099 5.1553 20.5554 5.26322 20.5554 5.37574C20.5554 5.61005 20.3619 5.8 20.1232 5.8H16.3998C15.9948 5.8 15.6665 5.47764 15.6665 5.08Z" fill="white" stroke="white" stroke-width="2" stroke-linecap="round" stroke-linejoin="round"/>
</svg>
