<svg width="22" height="22" viewBox="0 0 22 22" fill="none" xmlns="http://www.w3.org/2000/svg">
<path fill-rule="evenodd" clip-rule="evenodd" d="M1 10.9997C1.00034 6.22924 4.37046 2.12335 9.0493 1.19299C13.7282 0.262646 18.4127 2.76694 20.238 7.17437C22.0634 11.5818 20.5211 16.6648 16.5545 19.3149C12.5878 21.9651 7.30149 21.4441 3.92842 18.0707C2.0532 16.1952 0.999814 13.6518 1 10.9997Z" stroke="#D80000" stroke-width="2" stroke-linecap="round" stroke-linejoin="round"/>
<path d="M6.49217 13.9902C6.07369 14.4086 6.07356 15.0868 6.49188 15.5054C6.9102 15.9238 7.58858 15.9239 8.00699 15.5057L6.49217 13.9902ZM11.7568 11.7573C12.1753 11.3389 12.1755 10.6607 11.7571 10.2421C11.3388 9.82372 10.6604 9.82358 10.242 10.2418L11.7568 11.7573ZM10.242 10.2418C9.82375 10.6604 9.82361 11.3392 10.2422 11.7575C10.6607 12.1757 11.3387 12.1759 11.7568 11.7573L10.242 10.2418ZM15.5056 8.00565C15.9239 7.5871 15.9236 6.90875 15.505 6.49051C15.0865 6.07227 14.4081 6.07253 13.99 6.49109L15.5056 8.00565ZM11.7571 10.2421C11.3388 9.82372 10.6604 9.82358 10.242 10.2418C9.82375 10.6604 9.82361 11.3392 10.2422 11.7575L11.7571 10.2421ZM13.9918 15.5057C14.4102 15.9239 15.0886 15.9238 15.5069 15.5054C15.9253 15.0868 15.9252 14.4086 15.5066 13.9902L13.9918 15.5057ZM10.2422 11.7575C10.6607 12.1757 11.3387 12.1759 11.7568 11.7573C12.1753 11.3389 12.1755 10.6607 11.7571 10.2421L10.2422 11.7575ZM8.00727 6.49095C7.58901 6.07247 6.91064 6.07235 6.49217 6.49065C6.07369 6.90897 6.07356 7.58733 6.49188 8.00579L8.00727 6.49095ZM8.00699 15.5057L11.7568 11.7573L10.242 10.2418L6.49217 13.9902L8.00699 15.5057ZM11.7568 11.7573L15.5056 8.00565L13.99 6.49109L10.242 10.2418L11.7568 11.7573ZM10.2422 11.7575L13.9918 15.5057L15.5066 13.9902L11.7571 10.2421L10.2422 11.7575ZM11.7571 10.2421L8.00727 6.49095L6.49188 8.00579L10.2422 11.7575L11.7571 10.2421Z" fill="#D80000"/>
</svg>
