<svg width="4" height="18" viewBox="0 0 4 18" fill="none" xmlns="http://www.w3.org/2000/svg">
<path d="M4 15.9231C4 16.4739 3.78929 17.0022 3.41421 17.3917C3.03914 17.7812 2.53043 18 2 18C1.46957 18 0.960859 17.7812 0.585786 17.3917C0.210713 17.0022 0 16.4739 0 15.9231C0 15.3722 0.210713 14.844 0.585786 14.4545C0.960859 14.065 1.46957 13.8462 2 13.8462C2.53043 13.8462 3.03914 14.065 3.41421 14.4545C3.78929 14.844 4 15.3722 4 15.9231ZM4 9C4 9.55083 3.78929 10.0791 3.41421 10.4686C3.03914 10.8581 2.53043 11.0769 2 11.0769C1.46957 11.0769 0.960859 10.8581 0.585786 10.4686C0.210713 10.0791 0 9.55083 0 9C0 8.44917 0.210713 7.92089 0.585786 7.53139C0.960859 7.14189 1.46957 6.92308 2 6.92308C2.53043 6.92308 3.03914 7.14189 3.41421 7.53139C3.78929 7.92089 4 8.44917 4 9ZM4 2.07692C4 2.62776 3.78929 3.15603 3.41421 3.54553C3.03914 3.93503 2.53043 4.15385 2 4.15385C1.46957 4.15385 0.960859 3.93503 0.585786 3.54553C0.210713 3.15603 0 2.62776 0 2.07692C0 1.52609 0.210713 0.997815 0.585786 0.608317C0.960859 0.218818 1.46957 0 2 0C2.53043 0 3.03914 0.218818 3.41421 0.608317C3.78929 0.997815 4 1.52609 4 2.07692Z" fill="black"/>
</svg>
