<svg width="24" height="24" viewBox="0 0 24 24" fill="none" xmlns="http://www.w3.org/2000/svg">
<path d="M20.4819 18.6551C20.1684 18.4695 19.756 18.5767 19.5704 18.8984C19.1455 19.6284 18.4651 20.0615 17.7515 20.0615C17.0999 20.0615 16.5142 19.7109 16.1059 19.1541H17.236C17.6071 19.1541 17.9 18.853 17.9 18.4901C17.9 18.1271 17.5989 17.826 17.236 17.826H15.5491C15.5161 17.6322 15.4212 17.1043 15.5491 16.6423H17.236C17.6071 16.6423 17.9 16.3412 17.9 15.9783C17.9 15.6153 17.5989 15.3143 17.236 15.3143H16.1059C16.5224 14.7533 17.1081 14.3986 17.7598 14.3986C18.4691 14.3986 19.1497 14.8317 19.5786 15.5617C19.7642 15.8751 20.1767 15.9865 20.4901 15.7968C20.8036 15.6112 20.915 15.1987 20.7252 14.8853C20.053 13.747 18.9435 13.0664 17.7557 13.0664C16.374 13.0664 15.1779 13.9779 14.5758 15.3101H13.5488C13.1776 15.3101 12.8848 15.6112 12.8848 15.9741C12.8848 16.3371 13.1858 16.6382 13.5488 16.6382H14.2046C14.0973 17.2279 14.1798 17.628 14.2046 17.8219H13.5488C13.1776 17.8219 12.8848 18.123 12.8848 18.4859C12.8848 18.8489 13.1858 19.15 13.5488 19.15H14.5758C15.1779 20.4822 16.374 21.3937 17.7557 21.3937C18.9476 21.3937 20.0571 20.709 20.7252 19.5666C20.9109 19.2449 20.8036 18.8407 20.4819 18.6551Z" fill="white"/>
<path d="M9.76262 19.8837L7.93553 18.0566C7.67567 17.7968 7.25498 17.7968 6.99519 18.0566C6.73533 18.3165 6.73533 18.7372 6.99519 18.997L7.62208 19.6239C4.98659 19.2527 2.94915 16.9925 2.94915 14.2539C2.94915 13.8827 2.64808 13.5898 2.28512 13.5898C1.92216 13.5898 1.62109 13.8909 1.62109 14.2539C1.62109 17.7596 4.30195 20.6467 7.7211 20.9849L6.99933 21.7067C6.73948 21.9665 6.73948 22.3872 6.99933 22.647C7.2798 22.9275 7.75823 22.8574 7.93968 22.647L9.76269 20.824C10.0225 20.5643 10.0225 20.1436 9.76262 19.8837Z" fill="white"/>
<path d="M16.2831 3.01127L17.0049 2.28951C17.2647 2.02965 17.2647 1.60896 17.0049 1.34916C16.745 1.08937 16.3202 1.08931 16.0645 1.34916L14.2457 3.17217C13.9858 3.43203 13.9858 3.85272 14.2457 4.11252L16.0687 5.93961C16.312 6.18294 16.7904 6.16648 17.009 5.93961C17.2689 5.67975 17.2689 5.25906 17.009 4.99927L16.3821 4.37237C19.0176 4.74356 21.0551 7.00372 21.0551 9.74238C21.0551 10.1136 21.3561 10.4064 21.7191 10.4064C22.082 10.4064 22.3831 10.1053 22.3831 9.74238C22.3831 6.2366 19.7023 3.34947 16.2831 3.01127Z" fill="white"/>
<path d="M17.2357 10.4678C13.5073 10.4678 10.4717 13.4992 10.4717 17.2318C10.4717 20.9644 13.5073 23.9958 17.2357 23.9958C20.9683 23.9958 23.9997 20.9603 23.9997 17.2318C24.008 13.5034 20.9683 10.4678 17.2357 10.4678ZM17.2357 22.6678C14.2414 22.6678 11.8039 20.2344 11.8039 17.236C11.8039 14.2375 14.2373 11.8041 17.2357 11.8041C20.2342 11.8041 22.6675 14.2375 22.6675 17.236C22.6717 20.2303 20.2342 22.6678 17.2357 22.6678Z" fill="white"/>
<path d="M6.76818 0C3.03558 0 0 3.03558 0 6.7641C0 10.4926 3.03558 13.5281 6.76818 13.5281C10.5008 13.5281 13.5322 10.4925 13.5322 6.7641C13.5322 3.0315 10.4966 0 6.76818 0ZM6.76818 12.1918C3.76973 12.1918 1.3322 9.75425 1.3322 6.76403C1.3322 3.76558 3.76973 1.32805 6.76818 1.32805C9.76248 1.32805 12.2 3.76143 12.2 6.75988C12.2 9.75834 9.76663 12.1918 6.76818 12.1918Z" fill="white"/>
<path d="M6.76405 6.09612C6.33097 6.09612 5.9804 5.74554 5.9804 5.31247C5.9804 4.87939 6.33097 4.52882 6.76405 4.52882C7.19712 4.52882 7.5477 4.87939 7.5477 5.31247C7.5477 5.68365 7.84877 5.97649 8.21172 5.97649C8.57468 5.97649 8.87575 5.67542 8.87575 5.31247C8.87575 4.38035 8.26946 3.58847 7.42807 3.30801V3.0234C7.42807 2.65222 7.127 2.35938 6.76405 2.35938C6.40109 2.35938 6.10002 2.66045 6.10002 3.0234V3.30801C5.25863 3.58847 4.65234 4.3845 4.65234 5.31247C4.65234 6.47968 5.60506 7.42832 6.76819 7.42832C7.20126 7.42832 7.55184 7.77889 7.55184 8.21197C7.55184 8.64089 7.19712 8.99562 6.76819 8.99562C6.33512 8.99562 5.98454 8.64504 5.98454 8.21197C5.98454 7.84078 5.68347 7.54794 5.32052 7.54794C4.94933 7.54794 4.65649 7.84901 4.65649 8.21197C4.65649 9.14408 5.26693 9.93596 6.10417 10.2164V10.501C6.10417 10.8722 6.40524 11.1651 6.76819 11.1651C7.13115 11.1651 7.43222 10.864 7.43222 10.501V10.2164C8.27361 9.93596 8.8799 9.13993 8.8799 8.21197C8.8799 7.04475 7.92718 6.09612 6.76405 6.09612Z" fill="white"/>
</svg>
