<svg width="24" height="24" viewBox="0 0 24 24" fill="none" xmlns="http://www.w3.org/2000/svg">
<path d="M1.56553 8.37452V8.19803C1.56553 6.54034 2.89134 5.1913 4.52176 5.1913H11.1303C12.7609 5.1913 14.0873 6.54034 14.0873 8.19803V8.37452H22.6084C23.1116 8.37452 23.585 8.5039 23.9998 8.73046V4.59958C23.9998 3.8176 23.3763 3.18493 22.6084 3.18493H14.2436C13.2926 3.18493 12.5217 2.40074 12.5217 1.43345V1.41601C12.5217 0.634031 11.8982 0 11.1303 0H4.52176C3.75302 0 3.13032 0.634031 3.13032 1.41601V1.4335C3.13032 2.40084 2.3594 3.18498 1.40844 3.18498H1.39124C0.623298 3.18498 0 3.81765 0 4.59963V8.73046C0.414755 8.50395 0.888202 8.37452 1.39124 8.37452H1.56553Z" fill="white"/>
<path d="M1.56573 15.2744V15.098C1.56573 13.4395 2.89134 12.0908 4.52196 12.0908H11.1305C12.7609 12.0908 14.0875 13.4395 14.0875 15.098V15.2744H22.6086C23.1116 15.2744 23.585 15.404 23.9998 15.6306V11.3828C23.9998 10.6016 23.3765 9.96758 22.6086 9.96758H14.2436C13.2926 9.96758 12.5217 9.18338 12.5217 8.2161V8.1986C12.5217 7.41643 11.8984 6.7832 11.1305 6.7832H4.52196C3.75322 6.7832 3.13052 7.41648 3.13052 8.1986V8.2161C3.13052 9.18343 2.3596 9.96758 1.40864 9.96758H1.39144C0.623496 9.96753 0 10.6016 0 11.3827V15.6305C0.414954 15.404 0.8884 15.2744 1.39144 15.2744H1.56573V15.2744Z" fill="white"/>
<path d="M24 18.2814C24 17.5007 23.3765 16.867 22.6086 16.867H14.2438C13.2928 16.867 12.5219 16.0828 12.5219 15.1155V15.0978C12.5219 14.3158 11.8984 13.6826 11.1305 13.6826H4.52196C3.75322 13.6826 3.13052 14.3159 3.13052 15.0978V15.1155C3.13052 16.0828 2.3596 16.867 1.40864 16.867H1.39144C0.623496 16.867 0 17.5007 0 18.2814V24.0002H24V18.2814Z" fill="white"/>
</svg>
