<svg width="24" height="24" viewBox="0 0 24 24" fill="none" xmlns="http://www.w3.org/2000/svg">
<path d="M11.9999 4.80029C12.6627 4.80029 13.1999 5.33756 13.1999 6.00029V10.8003H17.9999C18.6627 10.8003 19.1999 11.3375 19.1999 12.0003C19.1999 12.6631 18.6627 13.2003 17.9999 13.2003H13.1999V18.0003C13.1999 18.6631 12.6627 19.2003 11.9999 19.2003C11.3372 19.2003 10.7999 18.6631 10.7999 18.0003V13.2003H5.99993C5.33719 13.2003 4.79993 12.6631 4.79993 12.0003C4.79993 11.3375 5.33719 10.8003 5.99993 10.8003H10.7999V6.00029C10.7999 5.33756 11.3372 4.80029 11.9999 4.80029Z" fill="white"/>
<path fill-rule="evenodd" clip-rule="evenodd" d="M0 3C0 1.34315 1.34315 0 3 0H21C22.6568 0 24 1.34315 24 3V21C24 22.6568 22.6568 24 21 24H3C1.34315 24 0 22.6568 0 21V3ZM3 2.4C2.66863 2.4 2.4 2.66863 2.4 3V21C2.4 21.3313 2.66863 21.6 3 21.6H21C21.3313 21.6 21.6 21.3313 21.6 21V3C21.6 2.66863 21.3313 2.4 21 2.4H3Z" fill="white"/>
</svg>
