<svg width="36" height="36" viewBox="0 0 36 36" fill="none" xmlns="http://www.w3.org/2000/svg">
<circle cx="18" cy="18" r="18" fill="white"/>
<path d="M18 0C8.05781 0 0 8.05781 0 18C0 27.9422 8.05781 36 18 36C27.9422 36 36 27.9422 36 18C36 8.05781 27.9422 0 18 0ZM18.6398 9.99141C19.3008 9.18984 20.4258 8.57812 21.3891 8.50781C21.5508 9.60469 21.1008 10.6734 20.5102 11.4328C19.8773 12.2484 18.7875 12.8742 17.7328 12.8391C17.55 11.7914 18.0422 10.7156 18.6398 9.99141ZM24.5672 23.8992C23.8078 25.0523 22.7391 26.4937 21.4102 26.5078C20.2289 26.5219 19.9266 25.7414 18.3305 25.7484C16.7344 25.7555 16.3969 26.5219 15.2156 26.5078C13.8867 26.4937 12.8742 25.193 12.1148 24.0398C9.99141 20.8055 9.76641 17.0156 11.0813 14.9977C12.0094 13.5633 13.4789 12.7266 14.8641 12.7266C16.2703 12.7266 17.1492 13.5 18.3164 13.5C19.4414 13.5 20.1305 12.7266 21.7547 12.7266C22.9852 12.7266 24.2859 13.3945 25.2141 14.5547C22.1766 16.2211 22.6688 20.5594 25.7414 21.7195C25.3125 22.6477 25.1086 23.0695 24.5672 23.8992Z" fill="black"/>
</svg>
