<svg width="24" height="24" viewBox="0 0 24 24" fill="none" xmlns="http://www.w3.org/2000/svg">
<path d="M12 4.80029C12.6628 4.80029 13.2 5.33756 13.2 6.00029V10.8003H18C18.6628 10.8003 19.2 11.3375 19.2 12.0003C19.2 12.6631 18.6628 13.2003 18 13.2003H13.2V18.0003C13.2 18.6631 12.6628 19.2003 12 19.2003C11.3373 19.2003 10.8 18.6631 10.8 18.0003V13.2003H6.00005C5.33731 13.2003 4.80005 12.6631 4.80005 12.0003C4.80005 11.3375 5.33731 10.8003 6.00005 10.8003H10.8V6.00029C10.8 5.33756 11.3373 4.80029 12 4.80029Z" fill="#4E95FF"/>
<path fill-rule="evenodd" clip-rule="evenodd" d="M0 3C0 1.34315 1.34315 0 3 0H21C22.6568 0 24 1.34315 24 3V21C24 22.6568 22.6568 24 21 24H3C1.34315 24 0 22.6568 0 21V3ZM3 2.4C2.66863 2.4 2.4 2.66863 2.4 3V21C2.4 21.3313 2.66863 21.6 3 21.6H21C21.3313 21.6 21.6 21.3313 21.6 21V3C21.6 2.66863 21.3313 2.4 21 2.4H3Z" fill="#4E95FF"/>
</svg>
