<svg width="48" height="48" viewBox="0 0 48 48" fill="none" xmlns="http://www.w3.org/2000/svg">
<path d="M24 0C30.3652 0 36.4697 2.52856 40.9706 7.02944C45.4714 11.5303 48 17.6348 48 24C48 30.3652 45.4714 36.4697 40.9706 40.9706C36.4697 45.4714 30.3652 48 24 48C17.6348 48 11.5303 45.4714 7.02944 40.9706C2.52856 36.4697 0 30.3652 0 24C0 17.6348 2.52856 11.5303 7.02944 7.02944C11.5303 2.52856 17.6348 0 24 0ZM21.0103 28.7349L15.6789 23.4C15.4877 23.2089 15.2608 23.0573 15.0111 22.9538C14.7614 22.8504 14.4937 22.7971 14.2234 22.7971C13.9531 22.7971 13.6855 22.8504 13.4358 22.9538C13.186 23.0573 12.9591 23.2089 12.768 23.4C12.382 23.786 12.1651 24.3095 12.1651 24.8554C12.1651 25.4013 12.382 25.9249 12.768 26.3109L19.5566 33.0994C19.7472 33.2915 19.9739 33.444 20.2237 33.548C20.4735 33.6521 20.7414 33.7056 21.012 33.7056C21.2826 33.7056 21.5505 33.6521 21.8003 33.548C22.0501 33.444 22.2768 33.2915 22.4674 33.0994L36.5246 19.0389C36.7183 18.8485 36.8723 18.6217 36.9779 18.3715C37.0835 18.1214 37.1385 17.8527 37.1398 17.5812C37.1411 17.3096 37.0885 17.0405 36.9853 16.7894C36.882 16.5382 36.7301 16.31 36.5382 16.1179C36.3463 15.9257 36.1182 15.7735 35.8672 15.6699C35.6161 15.5664 35.3471 15.5135 35.0755 15.5145C34.804 15.5154 34.5353 15.5701 34.285 15.6754C34.0347 15.7807 33.8077 15.9345 33.6171 16.128L21.0103 28.7349Z" fill="#008D18"/>
</svg>
