<svg width="14" height="16" viewBox="0 0 14 16" fill="none" xmlns="http://www.w3.org/2000/svg">
<path d="M11.2065 13.7981H11.621C12.1403 13.7981 12.6383 13.6163 13.0055 13.2929C13.3727 12.9694 13.579 12.5307 13.579 12.0733V1.72476C13.579 1.26732 13.3727 0.828625 13.0055 0.50517C12.6383 0.181715 12.1403 0 11.621 0H2.37902C1.85972 0 1.36168 0.181715 0.994476 0.50517C0.627272 0.828625 0.420979 1.26732 0.420979 1.72476V12.0733C0.420979 12.5307 0.627272 12.9694 0.994476 13.2929C1.36168 13.6163 1.85972 13.7981 2.37902 13.7981H2.79347L0 16H1.77855L2.67273 15.2957H11.3436L12.2378 16H14L11.2065 13.7981ZM10.9161 12.7373C10.7225 12.7373 10.5332 12.6868 10.3722 12.592C10.2112 12.4972 10.0857 12.3626 10.0116 12.205C9.93749 12.0474 9.9181 11.874 9.95587 11.7067C9.99365 11.5394 10.0869 11.3858 10.2238 11.2652C10.3607 11.1446 10.5352 11.0624 10.7251 11.0291C10.915 10.9959 11.1118 11.0129 11.2907 11.0782C11.4696 11.1435 11.6225 11.254 11.7301 11.3958C11.8377 11.5377 11.8951 11.7044 11.8951 11.875C11.8973 11.9887 11.8735 12.1018 11.8251 12.2073C11.7767 12.3128 11.7046 12.4086 11.6133 12.4891C11.5219 12.5696 11.4131 12.633 11.2933 12.6757C11.1736 12.7183 11.0453 12.7393 10.9161 12.7373ZM4.80699 0.664032H9.18974C9.33255 0.664032 9.46951 0.714003 9.57049 0.802953C9.67148 0.891903 9.72821 1.01255 9.72821 1.13834C9.72821 1.26413 9.67148 1.38478 9.57049 1.47373C9.46951 1.56268 9.33255 1.61265 9.18974 1.61265H4.81026C4.66745 1.61265 4.53049 1.56268 4.42951 1.47373C4.32853 1.38478 4.27179 1.26413 4.27179 1.13834C4.27179 1.01255 4.32853 0.891903 4.42951 0.802953C4.53049 0.714003 4.66745 0.664032 4.81026 0.664032H4.80699ZM1.4 7.50557V3.16493C1.4 2.93621 1.50315 2.71686 1.68675 2.55514C1.87035 2.39341 2.11937 2.30255 2.37902 2.30255H11.621C11.8806 2.30255 12.1296 2.39341 12.3133 2.55514C12.4969 2.71686 12.6 2.93621 12.6 3.16493V7.50557C12.6 7.73429 12.4969 7.95364 12.3133 8.11536C12.1296 8.27709 11.8806 8.36795 11.621 8.36795H2.37902C2.11937 8.36795 1.87035 8.27709 1.68675 8.11536C1.50315 7.95364 1.4 7.73429 1.4 7.50557ZM2.10489 11.8893C2.10492 11.7182 2.16278 11.5509 2.27109 11.4088C2.37941 11.2666 2.53328 11.1561 2.71313 11.0913C2.89297 11.0265 3.09065 11.0103 3.28099 11.0447C3.47134 11.0792 3.64573 11.1628 3.78198 11.2848C3.91823 11.4068 4.01016 11.5618 4.04607 11.7301C4.08198 11.8983 4.06025 12.0721 3.98365 12.2294C3.90704 12.3867 3.77902 12.5204 3.61589 12.6134C3.45276 12.7064 3.26189 12.7546 3.0676 12.7517C2.93979 12.7517 2.81326 12.7293 2.69538 12.6858C2.5775 12.6423 2.47064 12.5785 2.38103 12.4983C2.29142 12.418 2.22085 12.3228 2.17344 12.2183C2.12603 12.1137 2.10273 12.0019 2.10489 11.8893ZM3.95524 14.2609L4.53613 13.7981H9.47366L10.0317 14.2609H3.95524Z" fill="white"/>
</svg>
