<svg width="28" height="28" viewBox="0 0 28 28" fill="none" xmlns="http://www.w3.org/2000/svg">
<path d="M0 22.764C0 24.22 0.513333 25.452 1.54 26.46C2.56667 27.468 3.808 27.9813 5.264 28H22.764C24.2013 28 25.4333 27.4867 26.46 26.46C27.4867 25.4333 28 24.2013 28 22.764V5.264C28 3.808 27.4867 2.56667 26.46 1.54C25.4333 0.513333 24.2013 0 22.764 0H5.264C3.808 0 2.56667 0.513333 1.54 1.54C0.513333 2.56667 0 3.808 0 5.264L0 22.764ZM3.5 22.764V5.264C3.5 4.77867 3.668 4.368 4.004 4.032C4.34 3.696 4.76 3.51867 5.264 3.5H22.764C23.2307 3.5 23.6413 3.67733 23.996 4.032C24.3507 4.38667 24.5187 4.79733 24.5 5.264V22.764C24.5 23.2493 24.332 23.66 23.996 23.996C23.66 24.332 23.2493 24.5 22.764 24.5H5.264C4.77867 24.5 4.35867 24.332 4.004 23.996C3.64933 23.66 3.48133 23.2493 3.5 22.764ZM7 14C7 14.4853 7.168 14.9053 7.504 15.26C7.84 15.6147 8.26 15.7827 8.764 15.764H12.264V19.264C12.264 19.7493 12.432 20.16 12.768 20.496C13.104 20.832 13.5147 21 14 21C14.4853 21 14.896 20.832 15.232 20.496C15.568 20.16 15.7453 19.7493 15.764 19.264V15.764H19.264C19.7307 15.764 20.1413 15.596 20.496 15.26C20.8507 14.924 21.0187 14.504 21 14C20.9813 13.496 20.8133 13.0853 20.496 12.768C20.1787 12.4507 19.768 12.2827 19.264 12.264H15.764V8.764C15.764 8.27867 15.5867 7.868 15.232 7.532C14.8773 7.196 14.4667 7.01867 14 7C13.5333 6.98133 13.1227 7.15867 12.768 7.532C12.4133 7.90533 12.2453 8.316 12.264 8.764V12.264H8.764C8.27867 12.264 7.85867 12.432 7.504 12.768C7.14933 13.104 6.98133 13.5147 7 14Z" fill="white"/>
</svg>
