<svg width="24" height="24" viewBox="0 0 24 24" fill="none" xmlns="http://www.w3.org/2000/svg">
<path d="M21.8727 14.4413L21.8159 13.8727L21.7973 13.8745L21.7787 13.8776L21.8727 14.4413ZM21.8727 14.4413L21.9296 15.0099L21.9482 15.008L21.9666 15.0049L21.8727 14.4413ZM17.2547 20.7067L17.6167 20.2645L17.6118 20.2606L17.2547 20.7067ZM17.2547 20.7067L16.8929 21.149L16.8978 21.1529L17.2547 20.7067ZM6.74523 20.7073L6.38338 20.265L6.37433 20.2725L6.36559 20.2802L6.74523 20.7073ZM6.74523 20.7073L7.10706 21.1495L7.11611 21.1422L7.12485 21.1344L6.74523 20.7073ZM2.12749 9.55867V8.98725H2.09898L2.07063 8.99009L2.12749 9.55867ZM2.12749 9.55867L2.1275 10.1301H2.156L2.18435 10.1273L2.12749 9.55867ZM15.0099 2.0705C14.9858 1.83024 14.9654 1.62223 14.9366 1.45097C14.9069 1.27408 14.863 1.09904 14.775 0.928481L13.7593 1.45234C13.7711 1.47528 13.7895 1.52091 13.8095 1.64022C13.8305 1.76513 13.8472 1.92886 13.8727 2.18422L15.0099 2.0705ZM15.2327 3.44534C15.2198 3.42838 15.1778 3.35854 15.1338 3.11373C15.0907 2.87437 15.0577 2.54915 15.0099 2.0705L13.8727 2.18422C13.9186 2.64369 13.9561 3.02208 14.009 3.31613C14.0609 3.60472 14.1407 3.89809 14.324 4.1385L15.2327 3.44534ZM15.7632 3.66508C15.5598 3.69245 15.3571 3.60856 15.2327 3.44534L14.324 4.1385C14.6976 4.62821 15.3051 4.87985 15.9155 4.79773L15.7632 3.66508ZM16.8929 2.85046C16.5206 3.15507 16.2673 3.36174 16.0677 3.50053C15.8633 3.64248 15.7843 3.66223 15.7632 3.66508L15.9155 4.79773C16.2152 4.75742 16.4791 4.60634 16.7198 4.43899C16.9651 4.26849 17.2592 4.02738 17.6166 3.73498L16.8929 2.85046ZM17.8665 2.20903C17.6837 2.26743 17.5288 2.36014 17.3827 2.46422C17.2413 2.56498 17.0798 2.69757 16.8929 2.85046L17.6166 3.73498C17.8152 3.57247 17.9427 3.46849 18.0459 3.39499C18.1445 3.3248 18.1897 3.30553 18.2143 3.29768L17.8665 2.20903ZM19.0697 2.26904C18.6891 2.10412 18.2616 2.08279 17.8665 2.20903L18.2143 3.29768C18.3459 3.2556 18.4885 3.26271 18.6153 3.31768L19.0697 2.26904ZM19.9746 3.00417C19.804 2.83343 19.6563 2.68543 19.5256 2.5711C19.3906 2.45301 19.2458 2.34534 19.0697 2.26904L18.6153 3.31768C18.6391 3.32794 18.6822 3.35162 18.7731 3.43127C18.8686 3.51467 18.9851 3.63082 19.1665 3.81229L19.9746 3.00417ZM20.9958 4.02527L19.9746 3.00417L19.1665 3.81229L20.1877 4.83339L20.9958 4.02527ZM21.731 4.93024C21.6546 4.75415 21.547 4.6093 21.4289 4.47431C21.3145 4.3436 21.1665 4.19601 20.9958 4.02527L20.1877 4.83339C20.3691 5.01487 20.4853 5.13144 20.5687 5.22678C20.6483 5.31783 20.672 5.36094 20.6823 5.38463L21.731 4.93024ZM21.791 6.13349C21.9171 5.73837 21.8959 5.31086 21.731 4.93024L20.6823 5.38463C20.7373 5.5115 20.7443 5.65399 20.7023 5.7857L21.791 6.13349ZM21.1495 7.10711C21.3024 6.92023 21.435 6.75865 21.5358 6.61721C21.6398 6.47113 21.7326 6.3163 21.791 6.13349L20.7023 5.7857C20.6944 5.8103 20.6752 5.85553 20.6049 5.95406C20.5314 6.05723 20.4274 6.18478 20.2649 6.38341L21.1495 7.10711ZM20.3349 8.23681C20.3377 8.21568 20.3575 8.13666 20.4994 7.93239C20.6382 7.73269 20.8449 7.47943 21.1495 7.10711L20.2649 6.38341C19.9726 6.7408 19.7314 7.03482 19.5609 7.28017C19.3936 7.52096 19.2425 7.78478 19.2022 8.08446L20.3349 8.23681ZM20.5546 8.76731C20.3913 8.64279 20.3075 8.44027 20.3349 8.23681L19.2022 8.08446C19.1201 8.69486 19.3718 9.30239 19.8614 9.67594L20.5546 8.76731ZM21.9295 8.99009C21.4507 8.94223 21.1256 8.90928 20.8862 8.86621C20.6414 8.82215 20.5715 8.78024 20.5546 8.76731L19.8614 9.67594C20.1018 9.85931 20.3952 9.93909 20.6838 9.99097C20.9778 10.0439 21.3562 10.0814 21.8158 10.1273L21.9295 8.99009ZM23.0715 9.22499C22.901 9.13702 22.7259 9.09309 22.549 9.06338C22.3777 9.03463 22.1697 9.01413 21.9295 8.99009L21.8158 10.1273C22.0711 10.1528 22.2349 10.1695 22.3598 10.1905C22.4791 10.2105 22.5247 10.2289 22.5477 10.2407L23.0715 9.22499ZM23.8799 10.1182C23.7274 9.73246 23.4402 9.41514 23.0715 9.22499L22.5477 10.2407C22.6705 10.3041 22.7663 10.4098 22.8171 10.5384L23.8799 10.1182ZM24 11.2779C24 11.0366 24.0003 10.8275 23.9887 10.6542C23.9768 10.4752 23.9505 10.2967 23.8799 10.1182L22.8171 10.5384C22.8266 10.5624 22.8403 10.6097 22.8485 10.7304C22.8568 10.8568 22.8571 11.0214 22.8571 11.2779H24ZM24 12.7222V11.2779H22.8571V12.7222H24ZM23.88 13.8816C23.9505 13.7032 23.9768 13.5247 23.9887 13.3457C24.0003 13.1726 24 12.9635 24 12.7222H22.8571C22.8571 12.9787 22.8568 13.1432 22.8485 13.2696C22.8403 13.3903 22.8266 13.4375 22.8171 13.4615L23.88 13.8816ZM23.0714 14.7751C23.4401 14.5849 23.7274 14.2674 23.88 13.8816L22.8171 13.4615C22.7663 13.5902 22.6705 13.6959 22.5477 13.7593L23.0714 14.7751ZM21.9296 15.0099C22.1698 14.9858 22.3777 14.9654 22.549 14.9366C22.7258 14.907 22.9009 14.863 23.0714 14.7751L22.5477 13.7593C22.5247 13.7712 22.4791 13.7895 22.3598 13.8095C22.2349 13.8305 22.0712 13.8472 21.8159 13.8727L21.9296 15.0099ZM20.5551 15.2326C20.5721 15.2197 20.6419 15.1777 20.8866 15.1337C21.1259 15.0906 21.4511 15.0577 21.9296 15.0099L21.8159 13.8727C21.3565 13.9186 20.9783 13.956 20.6842 14.0089C20.3958 14.0608 20.1025 14.1405 19.8622 14.3238L20.5551 15.2326ZM20.3353 15.7633C20.3079 15.5598 20.3918 15.3571 20.5551 15.2326L19.8622 14.3238C19.3722 14.6974 19.1205 15.3053 19.2026 15.9159L20.3353 15.7633ZM21.1497 16.8926C20.8451 16.5203 20.6386 16.2672 20.4998 16.0675C20.3579 15.8634 20.3382 15.7843 20.3353 15.7633L19.2026 15.9159C19.2431 16.2154 19.3941 16.4791 19.5614 16.7198C19.7318 16.965 19.9728 17.259 20.2651 17.6162L21.1497 16.8926ZM21.791 17.8658C21.7325 17.6831 21.6398 17.5282 21.5358 17.3823C21.4351 17.2409 21.3025 17.0793 21.1497 16.8926L20.2651 17.6162C20.4275 17.8147 20.5315 17.9423 20.605 18.0454C20.6752 18.1439 20.6944 18.1891 20.7023 18.2137L21.791 17.8658ZM21.7309 19.0695C21.8959 18.6887 21.9173 18.261 21.791 17.8658L20.7023 18.2137C20.7445 18.3455 20.7373 18.488 20.6823 18.615L21.7309 19.0695ZM20.996 19.9741C21.1666 19.8034 21.3146 19.6559 21.4289 19.5253C21.547 19.3903 21.6546 19.2455 21.7309 19.0695L20.6823 18.615C20.672 18.6386 20.6483 18.6817 20.5687 18.7727C20.4854 18.868 20.3693 18.9846 20.1879 19.1659L20.996 19.9741ZM19.9747 20.9953L20.996 19.9741L20.1879 19.1659L19.1666 20.1872L19.9747 20.9953ZM19.0698 21.7304C19.2458 21.6542 19.3907 21.5465 19.5257 21.4283C19.6565 21.3141 19.804 21.1661 19.9747 20.9953L19.1666 20.1872C18.9851 20.3687 18.8686 20.4848 18.7733 20.5682C18.6822 20.6479 18.6391 20.6715 18.6154 20.6818L19.0698 21.7304ZM17.8665 21.7905C18.2616 21.9167 18.6891 21.8954 19.0698 21.7304L18.6154 20.6818C18.4886 20.7368 18.3461 20.7439 18.2143 20.7018L17.8665 21.7905ZM16.8929 21.149C17.0798 21.3019 17.2414 21.4345 17.3827 21.5353C17.5289 21.6393 17.6837 21.7321 17.8665 21.7905L18.2143 20.7018C18.1897 20.6939 18.1445 20.6747 18.0459 20.6045C17.9427 20.531 17.8153 20.427 17.6167 20.2645L16.8929 21.149ZM15.7632 20.3344C15.7843 20.3373 15.8634 20.357 16.0677 20.499C16.2673 20.6377 16.5206 20.8445 16.8929 21.149L17.6167 20.2645C17.2593 19.9721 16.9653 19.731 16.7199 19.5605C16.4791 19.3931 16.2153 19.2421 15.9157 19.2017L15.7632 20.3344ZM15.2327 20.5542C15.3573 20.391 15.5598 20.3071 15.7632 20.3344L15.9157 19.2017C15.3051 19.1197 14.6976 19.3713 14.3241 19.861L15.2327 20.5542ZM15.0099 21.9293C15.0578 21.4505 15.0907 21.1253 15.1338 20.8858C15.1779 20.6409 15.2198 20.5711 15.2327 20.5542L14.3241 19.861C14.1407 20.1014 14.0609 20.3949 14.009 20.6834C13.9561 20.9775 13.9187 21.356 13.8727 21.8155L15.0099 21.9293ZM14.775 23.0717C14.863 22.9011 14.9069 22.7259 14.9366 22.549C14.9654 22.3777 14.9859 22.1696 15.0099 21.9293L13.8727 21.8155C13.8472 22.071 13.8305 22.2347 13.8095 22.3598C13.7895 22.4791 13.7711 22.5248 13.7593 22.5477L14.775 23.0717ZM13.8819 23.8799C14.2675 23.7273 14.5848 23.4402 14.775 23.0717L13.7593 22.5477C13.6959 22.6705 13.5902 22.7663 13.4616 22.8171L13.8819 23.8799ZM12.7218 24C12.9634 24 13.1725 24.0003 13.3458 23.9887C13.5248 23.9768 13.7034 23.9504 13.8819 23.8799L13.4616 22.8171C13.4376 22.8266 13.3904 22.8403 13.2696 22.8485C13.1432 22.8568 12.9786 22.8571 12.7218 22.8571V24ZM11.2779 24H12.7218V22.8571H11.2779V24ZM10.1182 23.8799C10.2967 23.9505 10.4752 23.9768 10.6542 23.9887C10.8275 24.0003 11.0366 24 11.2779 24V22.8571C11.0214 22.8571 10.8568 22.8568 10.7304 22.8485C10.6097 22.8403 10.5624 22.8266 10.5384 22.8171L10.1182 23.8799ZM9.22499 23.0715C9.41513 23.4402 9.73246 23.7274 10.1182 23.8799L10.5384 22.8171C10.4098 22.7663 10.3041 22.6705 10.2407 22.5477L9.22499 23.0715ZM8.9901 21.9295C9.01413 22.1697 9.03463 22.3777 9.06338 22.549C9.09309 22.7259 9.13702 22.901 9.22499 23.0715L10.2407 22.5477C10.2289 22.5247 10.2105 22.4791 10.1905 22.3598C10.1695 22.2349 10.1528 22.0711 10.1273 21.8158L8.9901 21.9295ZM8.7673 20.5546C8.78024 20.5715 8.82215 20.6414 8.86621 20.8862C8.90928 21.1256 8.94223 21.4509 8.9901 21.9295L10.1273 21.8158C10.0814 21.3562 10.0439 20.9778 9.99097 20.6838C9.93909 20.3952 9.85931 20.1018 9.67593 19.8614L8.7673 20.5546ZM8.23682 20.3349C8.44029 20.3075 8.64279 20.3914 8.7673 20.5546L9.67593 19.8614C9.30238 19.3718 8.69487 19.1201 8.08448 19.2022L8.23682 20.3349ZM7.10706 21.1495C7.47939 20.8449 7.73267 20.6382 7.93239 20.4994C8.13666 20.3575 8.21568 20.3377 8.23682 20.3349L8.08448 19.2022C7.7848 19.2425 7.52097 19.3936 7.28017 19.5609C7.03482 19.7314 6.74079 19.9726 6.38338 20.265L7.10706 21.1495ZM6.13341 21.791C6.31623 21.7326 6.47106 21.6399 6.61715 21.5358C6.75859 21.4351 6.92018 21.3024 7.10706 21.1495L6.38338 20.265C6.18475 20.4275 6.05718 20.5315 5.95401 20.605C5.85547 20.6752 5.81023 20.6945 5.78565 20.7023L6.13341 21.791ZM4.93022 21.731C5.31081 21.8959 5.73829 21.9173 6.13341 21.791L5.78565 20.7023C5.65393 20.7445 5.51144 20.7373 5.38458 20.6823L4.93022 21.731ZM4.0252 20.9958C4.19595 21.1665 4.34354 21.3146 4.47425 21.4289C4.60926 21.547 4.75411 21.6547 4.93022 21.731L5.38458 20.6823C5.36089 20.6721 5.31778 20.6483 5.22673 20.5688C5.13138 20.4854 5.01481 20.3691 4.83333 20.1877L4.0252 20.9958ZM3.00413 19.9747L4.0252 20.9958L4.83333 20.1877L3.81225 19.1666L3.00413 19.9747ZM2.26897 19.0697C2.34528 19.2458 2.45294 19.3907 2.57104 19.5257C2.68538 19.6565 2.8334 19.804 3.00413 19.9747L3.81225 19.1666C3.63078 18.9851 3.51462 18.8686 3.43122 18.7733C3.35157 18.6822 3.32789 18.6391 3.31762 18.6154L2.26897 19.0697ZM2.20896 17.8665C2.08274 18.2617 2.10407 18.6891 2.26897 19.0697L3.31762 18.6154C3.26265 18.4886 3.25555 18.3461 3.29762 18.2143L2.20896 17.8665ZM2.85043 16.8929C2.69752 17.0798 2.56494 17.2414 2.46416 17.3827C2.36008 17.5289 2.26737 17.6838 2.20896 17.8665L3.29762 18.2143C3.30547 18.1897 3.32474 18.1445 3.39495 18.0459C3.46845 17.9427 3.57244 17.8152 3.73495 17.6166L2.85043 16.8929ZM3.66508 15.7632C3.66223 15.7843 3.64247 15.8633 3.50051 16.0677C3.36172 16.2673 3.15505 16.5206 2.85043 16.8929L3.73495 17.6166C4.02736 17.2592 4.26847 16.9651 4.43898 16.7198C4.60633 16.4791 4.75742 16.2152 4.79773 15.9155L3.66508 15.7632ZM3.44533 15.2327C3.60856 15.3571 3.69244 15.5597 3.66508 15.7632L4.79773 15.9155C4.87984 15.3051 4.62818 14.6976 4.1385 14.324L3.44533 15.2327ZM2.07049 15.0099C2.54915 15.0577 2.87437 15.0907 3.11372 15.1338C3.35853 15.1778 3.42838 15.2198 3.44533 15.2327L4.1385 14.324C3.89809 14.1407 3.60472 14.0609 3.31613 14.009C3.02208 13.9561 2.64368 13.9186 2.18421 13.8727L2.07049 15.0099ZM0.928481 14.775C1.09904 14.863 1.27408 14.9069 1.45097 14.9366C1.62223 14.9654 1.83023 14.9858 2.07049 15.0099L2.18421 13.8727C1.92885 13.8472 1.76513 13.8305 1.64022 13.8095C1.52091 13.7895 1.47529 13.7711 1.45235 13.7593L0.928481 14.775ZM0.120081 13.8817C0.272595 14.2675 0.559818 14.5849 0.928481 14.775L1.45235 13.7593C1.32946 13.6959 1.23373 13.5902 1.18288 13.4616L0.120081 13.8817ZM7.0798e-07 12.7221C7.0798e-07 12.9635 -0.000296376 13.1725 0.0112808 13.3458C0.0232351 13.5247 0.0495207 13.7033 0.120081 13.8817L1.18288 13.4616C1.1734 13.4375 1.15966 13.3903 1.15159 13.2696C1.14315 13.1432 1.14286 12.9786 1.14286 12.7221H7.0798e-07ZM7.0798e-07 11.2781V12.7221H1.14286V11.2781H7.0798e-07ZM0.120149 10.1181C0.0495435 10.2966 0.0232465 10.4752 0.0112808 10.6542C-0.000296376 10.8275 7.0798e-07 11.0366 7.0798e-07 11.2781H1.14286C1.14286 11.0214 1.14315 10.8568 1.1516 10.7304C1.15967 10.6096 1.17341 10.5624 1.1829 10.5384L0.120149 10.1181ZM0.928332 9.22506C0.559795 9.41519 0.272652 9.73246 0.120149 10.1181L1.1829 10.5384C1.23374 10.4098 1.32945 10.3041 1.4523 10.2407L0.928332 9.22506ZM2.07063 8.99009C1.83031 9.01411 1.62225 9.03463 1.45094 9.06339C1.27401 9.09311 1.09893 9.13705 0.928332 9.22506L1.4523 10.2407C1.47525 10.2289 1.52087 10.2105 1.64021 10.1905C1.76517 10.1695 1.92893 10.1528 2.18435 10.1273L2.07063 8.99009ZM3.44583 8.76722C3.42887 8.78017 3.35902 8.82209 3.11414 8.86616C2.87472 8.90926 2.54941 8.94221 2.07063 8.99009L2.18435 10.1273C2.64395 10.0813 3.02245 10.0439 3.31657 9.99097C3.60523 9.93897 3.89869 9.8592 4.13913 9.67577L3.44583 8.76722ZM3.66551 8.23686C3.69285 8.44027 3.60898 8.64272 3.44583 8.76722L4.13913 9.67577C4.62862 9.30224 4.88018 8.6949 4.79818 8.08466L3.66551 8.23686ZM2.85063 7.10679C3.15535 7.47922 3.36208 7.73256 3.50092 7.93234C3.64293 8.13667 3.66268 8.21571 3.66551 8.23686L4.79818 8.08466C4.75791 7.78489 4.60679 7.52099 4.43941 7.28014C4.26885 7.03471 4.02766 6.74059 3.73515 6.38309L2.85063 7.10679ZM2.20895 6.13273C2.26735 6.31562 2.36009 6.47053 2.46421 6.61667C2.56502 6.75817 2.69766 6.91982 2.85063 7.10679L3.73515 6.38309C3.57256 6.18437 3.46854 6.05675 3.39501 5.95354C3.32478 5.85497 3.30551 5.8097 3.29766 5.78511L2.20895 6.13273ZM2.26894 4.92996C2.10414 5.31043 2.08282 5.73774 2.20895 6.13273L3.29766 5.78511C3.25562 5.65344 3.26272 5.51101 3.31765 5.38418L2.26894 4.92996ZM3.00432 4.02461C2.83352 4.19542 2.68545 4.34306 2.57107 4.47382C2.45294 4.60887 2.34525 4.75377 2.26894 4.92996L3.31765 5.38418C3.32791 5.36048 3.35159 5.31736 3.43127 5.22627C3.5147 5.13089 3.6309 5.01427 3.81245 4.83273L3.00432 4.02461ZM4.02526 3.00368L3.00432 4.02461L3.81245 4.83273L4.83338 3.81179L4.02526 3.00368ZM4.93026 2.2685C4.75416 2.34481 4.60931 2.45247 4.47431 2.57057C4.3436 2.68492 4.196 2.83294 4.02526 3.00368L4.83338 3.81179C5.01486 3.63032 5.13144 3.51416 5.22678 3.43076C5.31784 3.3511 5.36094 3.32742 5.38463 3.31716L4.93026 2.2685ZM6.13345 2.20849C5.73834 2.08227 5.31086 2.1036 4.93026 2.2685L5.38463 3.31716C5.5115 3.2622 5.65399 3.25509 5.78569 3.29715L6.13345 2.20849ZM7.10722 2.85003C6.9203 2.69711 6.7587 2.5645 6.61723 2.46372C6.47114 2.35962 6.31629 2.2669 6.13345 2.20849L5.78569 3.29715C5.81027 3.30501 5.85553 3.32428 5.95408 3.39449C6.05727 3.46801 6.18486 3.57201 6.38352 3.73456L7.10722 2.85003ZM8.23678 3.66462C8.21566 3.66177 8.13665 3.64201 7.9324 3.50006C7.73272 3.36127 7.47949 3.15462 7.10722 2.85003L6.38352 3.73456C6.74087 4.02694 7.03486 4.26801 7.28015 4.4385C7.52089 4.60583 7.78464 4.7569 8.08424 4.79725L8.23678 3.66462ZM8.76742 3.44482C8.64288 3.60812 8.4403 3.69202 8.23678 3.66462L8.08424 4.79725C8.69482 4.87947 9.30257 4.62774 9.67617 4.13785L8.76742 3.44482ZM8.99011 2.07034C8.94226 2.54887 8.90933 2.87399 8.86627 3.11328C8.82223 3.35804 8.78034 3.42786 8.76742 3.44482L9.67617 4.13785C9.85943 3.89749 9.9392 3.60419 9.99109 3.31567C10.044 3.0217 10.0814 2.64342 10.1273 2.18407L8.99011 2.07034ZM9.2249 0.928629C9.13697 1.09914 9.09306 1.27416 9.06338 1.45099C9.03463 1.62221 9.01414 1.83016 8.99011 2.07034L10.1273 2.18407C10.1528 1.92878 10.1695 1.76511 10.1905 1.64022C10.2105 1.52095 10.2288 1.47534 10.2407 1.4524L9.2249 0.928629ZM10.1184 0.120012C9.73257 0.272538 9.41506 0.559841 9.2249 0.928629L10.2407 1.4524C10.3041 1.32947 10.4098 1.2337 10.5385 1.18286L10.1184 0.120012ZM11.2778 7.0941e-07C11.0365 7.0941e-07 10.8274 -0.000296388 10.6543 0.0112693C10.4753 0.0232122 10.2968 0.0494979 10.1184 0.120012L10.5385 1.18286C10.5625 1.17337 10.6097 1.15965 10.7304 1.15159C10.8568 1.14315 11.0213 1.14286 11.2778 1.14286V7.0941e-07ZM12.7221 7.0941e-07H11.2778V1.14286H12.7221V7.0941e-07ZM13.8817 0.120081C13.7033 0.0495207 13.5247 0.0232351 13.3458 0.0112808C13.1725 -0.000296373 12.9635 7.0941e-07 12.7221 7.0941e-07V1.14286C12.9786 1.14286 13.1432 1.14315 13.2696 1.15159C13.3903 1.15966 13.4375 1.1734 13.4616 1.18288L13.8817 0.120081ZM14.775 0.928481C14.5849 0.559818 14.2675 0.272595 13.8817 0.120081L13.4616 1.18288C13.5902 1.23373 13.6959 1.32946 13.7593 1.45234L14.775 0.928481ZM16 12C16 14.2091 14.2091 16 12 16V17.1429C14.8403 17.1429 17.1429 14.8403 17.1429 12H16ZM12 8C14.2091 8 16 9.79086 16 12H17.1429C17.1429 9.15968 14.8403 6.85714 12 6.85714V8ZM8 12C8 9.79086 9.79086 8 12 8V6.85714C9.15968 6.85714 6.85714 9.15968 6.85714 12H8ZM12 16C9.79086 16 8 14.2091 8 12H6.85714C6.85714 14.8403 9.15968 17.1429 12 17.1429V16Z" fill="white"/>
</svg>
