<svg width="24" height="24" viewBox="0 0 24 24" fill="none" xmlns="http://www.w3.org/2000/svg">
<path d="M1.56573 8.37452V8.19803C1.56573 6.54034 2.89154 5.1913 4.52196 5.1913H11.1305C12.7611 5.1913 14.0875 6.54034 14.0875 8.19803V8.37452H22.6086C23.1118 8.37452 23.5852 8.5039 24 8.73046V4.59958C24 3.8176 23.3765 3.18493 22.6086 3.18493H14.2438C13.2928 3.18493 12.5219 2.40074 12.5219 1.43345V1.41601C12.5219 0.634031 11.8984 0 11.1305 0H4.52196C3.75322 0 3.13052 0.634031 3.13052 1.41601V1.4335C3.13052 2.40084 2.3596 3.18498 1.40864 3.18498H1.39144C0.623496 3.18498 0.000198364 3.81765 0.000198364 4.59963V8.73046C0.414954 8.50395 0.888401 8.37452 1.39144 8.37452H1.56573Z" fill="white"/>
<path d="M1.56573 15.2742V15.0977C1.56573 13.4392 2.89134 12.0906 4.52196 12.0906H11.1305C12.7609 12.0906 14.0875 13.4392 14.0875 15.0977V15.2742H22.6086C23.1116 15.2742 23.585 15.4038 23.9998 15.6304V11.3825C23.9998 10.6014 23.3765 9.96733 22.6086 9.96733H14.2436C13.2926 9.96733 12.5217 9.18314 12.5217 8.21586V8.19836C12.5217 7.41618 11.8984 6.78296 11.1305 6.78296H4.52196C3.75322 6.78296 3.13052 7.41623 3.13052 8.19836V8.21586C3.13052 9.18319 2.3596 9.96733 1.40864 9.96733H1.39144C0.623496 9.96728 0 10.6013 0 11.3825V15.6303C0.414954 15.4038 0.8884 15.2742 1.39144 15.2742H1.56573V15.2742Z" fill="white"/>
<path d="M24 18.2812C24 17.5004 23.3765 16.8667 22.6086 16.8667H14.2438C13.2928 16.8667 12.5219 16.0826 12.5219 15.1153V15.0976C12.5219 14.3156 11.8984 13.6824 11.1305 13.6824H4.52196C3.75322 13.6824 3.13052 14.3156 3.13052 15.0976V15.1153C3.13052 16.0826 2.3596 16.8667 1.40864 16.8667H1.39144C0.623496 16.8668 0 17.5004 0 18.2812V24H24V18.2812Z" fill="white"/>
</svg>
