<svg width="24" height="24" viewBox="0 0 24 24" fill="none" xmlns="http://www.w3.org/2000/svg">
<path d="M20.4818 18.6547C20.1684 18.4691 19.7559 18.5763 19.5703 18.898C19.1455 19.628 18.465 20.0611 17.7515 20.0611C17.0998 20.0611 16.5141 19.7105 16.1058 19.1537H17.2359C17.6071 19.1537 17.8999 18.8527 17.8999 18.4897C17.8999 18.1268 17.5989 17.8257 17.2359 17.8257H15.549C15.5161 17.6319 15.4212 17.1039 15.549 16.6419H17.2359C17.6071 16.6419 17.8999 16.3409 17.8999 15.9779C17.8999 15.615 17.5989 15.3139 17.2359 15.3139H16.1058C16.5224 14.753 17.108 14.3982 17.7597 14.3982C18.4691 14.3982 19.1496 14.8313 19.5786 15.5613C19.7642 15.8748 20.1766 15.9861 20.4901 15.7964C20.8035 15.6108 20.9149 15.1983 20.7252 14.8849C20.0529 13.7466 18.9434 13.066 17.7556 13.066C16.3739 13.066 15.1779 13.9775 14.5757 15.3097H13.5487C13.1775 15.3097 12.8847 15.6108 12.8847 15.9738C12.8847 16.3367 13.1858 16.6378 13.5487 16.6378H14.2045C14.0973 17.2276 14.1798 17.6276 14.2045 17.8215H13.5487C13.1775 17.8215 12.8847 18.1226 12.8847 18.4856C12.8847 18.8485 13.1858 19.1496 13.5487 19.1496H14.5757C15.1779 20.4818 16.374 21.3933 17.7556 21.3933C18.9476 21.3933 20.0571 20.7087 20.7252 19.5662C20.9108 19.2445 20.8036 18.8403 20.4818 18.6547Z" fill="white"/>
<path d="M9.7625 19.8839L7.93541 18.0568C7.67555 17.7969 7.25486 17.7969 6.99507 18.0568C6.73521 18.3166 6.73521 18.7373 6.99507 18.9971L7.62196 19.624C4.98646 19.2528 2.94902 16.9927 2.94902 14.254C2.94902 13.8828 2.64795 13.59 2.285 13.59C1.92204 13.59 1.62097 13.891 1.62097 14.254C1.62097 17.7597 4.30183 20.6468 7.72098 20.985L6.99921 21.7068C6.73936 21.9667 6.73936 22.3874 6.99921 22.6471C7.27968 22.9276 7.75811 22.8575 7.93955 22.6471L9.76256 20.8241C10.0224 20.5644 10.0224 20.1437 9.7625 19.8839Z" fill="white"/>
<path d="M16.2832 3.01078L17.0049 2.28902C17.2648 2.02916 17.2648 1.60847 17.0049 1.34868C16.7451 1.08888 16.3203 1.08882 16.0646 1.34868L14.2457 3.17169C13.9859 3.43154 13.9859 3.85224 14.2457 4.11203L16.0687 5.93912C16.3121 6.18245 16.7905 6.16599 17.0091 5.93912C17.2689 5.67926 17.2689 5.25857 17.0091 4.99878L16.3822 4.37188C19.0177 4.74307 21.0551 7.00323 21.0551 9.74189C21.0551 10.1131 21.3562 10.4059 21.7192 10.4059C22.0821 10.4059 22.3832 10.1048 22.3832 9.74189C22.3832 6.23611 19.7023 3.34898 16.2832 3.01078Z" fill="white"/>
<path d="M17.236 10.4678C13.5075 10.4678 10.4719 13.4992 10.4719 17.2318C10.4719 20.9644 13.5075 23.9958 17.236 23.9958C20.9685 23.9958 24 20.9603 24 17.2318C24.0082 13.5034 20.9685 10.4678 17.236 10.4678ZM17.236 22.6678C14.2416 22.6678 11.8041 20.2344 11.8041 17.236C11.8041 14.2375 14.2375 11.8041 17.236 11.8041C20.2344 11.8041 22.6678 14.2375 22.6678 17.236C22.6719 20.2303 20.2344 22.6678 17.236 22.6678Z" fill="white"/>
<path d="M6.76818 0C3.03558 0 0 3.03558 0 6.7641C0 10.4926 3.03558 13.5281 6.76818 13.5281C10.5008 13.5281 13.5322 10.4925 13.5322 6.7641C13.5322 3.0315 10.4966 0 6.76818 0ZM6.76818 12.1918C3.76973 12.1918 1.3322 9.75425 1.3322 6.76403C1.3322 3.76558 3.76973 1.32805 6.76818 1.32805C9.76248 1.32805 12.2 3.76143 12.2 6.75988C12.2 9.75834 9.76663 12.1918 6.76818 12.1918Z" fill="white"/>
<path d="M6.76405 6.09587C6.33097 6.09587 5.9804 5.74529 5.9804 5.31222C5.9804 4.87915 6.33097 4.52857 6.76405 4.52857C7.19712 4.52857 7.5477 4.87915 7.5477 5.31222C7.5477 5.68341 7.84877 5.97625 8.21172 5.97625C8.57468 5.97625 8.87575 5.67518 8.87575 5.31222C8.87575 4.38011 8.26946 3.58823 7.42807 3.30777V3.02316C7.42807 2.65197 7.127 2.35913 6.76405 2.35913C6.40109 2.35913 6.10002 2.6602 6.10002 3.02316V3.30777C5.25863 3.58823 4.65234 4.38426 4.65234 5.31222C4.65234 6.47944 5.60506 7.42807 6.76819 7.42807C7.20126 7.42807 7.55184 7.77865 7.55184 8.21172C7.55184 8.64065 7.19712 8.99537 6.76819 8.99537C6.33512 8.99537 5.98454 8.64479 5.98454 8.21172C5.98454 7.84054 5.68347 7.5477 5.32052 7.5477C4.94933 7.5477 4.65649 7.84877 4.65649 8.21172C4.65649 9.14383 5.26693 9.93571 6.10417 10.2162V10.5008C6.10417 10.872 6.40524 11.1648 6.76819 11.1648C7.13115 11.1648 7.43222 10.8637 7.43222 10.5008V10.2162C8.27361 9.93571 8.8799 9.13969 8.8799 8.21172C8.8799 7.04451 7.92718 6.09587 6.76405 6.09587Z" fill="white"/>
</svg>
