<svg width="62" height="62" viewBox="0 0 62 62" fill="none" xmlns="http://www.w3.org/2000/svg">
<path d="M62 31C62 39.2217 58.7339 47.1067 52.9203 52.9203C47.1067 58.7339 39.2217 62 31 62C22.7783 62 14.8933 58.7339 9.07969 52.9203C3.26606 47.1067 0 39.2217 0 31C0 22.7783 3.26606 14.8933 9.07969 9.07969C14.8933 3.26606 22.7783 0 31 0C39.2217 0 47.1067 3.26606 52.9203 9.07969C58.7339 14.8933 62 22.7783 62 31ZM21.297 23.3779H24.4939C25.0286 23.3779 25.4549 22.94 25.5246 22.4091C25.8734 19.8671 27.6171 18.0149 30.7249 18.0149C33.3831 18.0149 35.8166 19.344 35.8166 22.5409C35.8166 25.0015 34.3674 26.133 32.0772 27.8535C29.4694 29.7484 27.404 31.961 27.5513 35.5531L27.5629 36.394C27.5669 36.6482 27.6708 36.8907 27.852 37.069C28.0333 37.2473 28.2774 37.3473 28.5316 37.3472H31.6742C31.9312 37.3472 32.1776 37.2452 32.3593 37.0635C32.5409 36.8818 32.643 36.6354 32.643 36.3785V35.9716C32.643 33.1894 33.7009 32.3795 36.5568 30.2134C38.9166 28.4193 41.3773 26.4275 41.3773 22.2464C41.3773 16.3913 36.4328 13.5625 31.0194 13.5625C26.1098 13.5625 20.7313 15.8487 20.3631 22.4207C20.3578 22.5459 20.3782 22.6708 20.4229 22.7878C20.4677 22.9048 20.5359 23.0114 20.6234 23.101C20.7108 23.1907 20.8157 23.2615 20.9316 23.3091C21.0474 23.3567 21.1718 23.3801 21.297 23.3779ZM30.3064 48.3445C32.6701 48.3445 34.2938 46.8178 34.2938 44.7524C34.2938 42.6134 32.6663 41.1099 30.3064 41.1099C28.0434 41.1099 26.3965 42.6134 26.3965 44.7524C26.3965 46.8178 28.0395 48.3445 30.3064 48.3445Z" fill="#1E90FF"/>
</svg>
