<svg width="16" height="16" viewBox="0 0 16 16" fill="none" xmlns="http://www.w3.org/2000/svg">
<path d="M6.9776 15.9987C6.44006 15.9987 5.95254 15.7487 5.63975 15.3127C5.32629 14.8767 5.24559 14.3347 5.41766 13.826L6.77953 9.99867H3.58761L2.76862 11.2467C2.45917 11.718 1.93763 11.9987 1.37408 11.9987C0.923235 11.9987 0.50307 11.78 0.247637 11.414C-0.00913004 11.0473 -0.0704874 10.578 0.0835729 10.1573L0.836534 8.004L0.0388888 5.91533C-0.0664858 5.376 0.0602304 4.87267 0.361682 4.51C0.635789 4.18067 1.0166 3.99933 1.4341 3.99933C1.99565 3.99933 2.51519 4.278 2.82465 4.746L3.65497 5.99933H6.77886L5.41899 2.17733C5.24493 1.66333 5.32562 1.122 5.63908 0.686C5.95187 0.25 6.43939 0 6.97694 0C7.66854 0 8.30412 0.376667 8.63559 0.984L11.508 6H13.9103C14.9314 6 15.8184 6.71667 15.9731 7.66667C16.0692 8.254 15.9051 8.84733 15.5243 9.29533C15.1435 9.74333 14.5879 10 13.9997 10H11.5087L8.63292 15.022C8.30479 15.6233 7.66921 16 6.9776 16V15.9987ZM3.40754 9.332H7.25238C7.36042 9.332 7.46179 9.38467 7.52449 9.47333C7.58718 9.562 7.60252 9.67533 7.56583 9.77733L6.04724 14.0447C5.9472 14.3427 5.99522 14.6647 6.18129 14.924C6.36737 15.1833 6.65748 15.332 6.97694 15.332C7.42445 15.332 7.83594 15.088 8.05069 14.6947L11.0252 9.49933C11.0845 9.396 11.1946 9.332 11.3146 9.332H13.999C14.3912 9.332 14.762 9.16067 15.0154 8.862C15.2735 8.55867 15.3796 8.172 15.3142 7.77267C15.2115 7.14133 14.6073 6.66533 13.9097 6.66533H11.314C11.1939 6.66533 11.0839 6.60133 11.0245 6.498L8.05469 1.308C7.83661 0.909333 7.42511 0.665333 6.9776 0.665333C6.65815 0.665333 6.36803 0.814 6.18196 1.07333C5.99589 1.33267 5.9472 1.65533 6.04991 1.958L7.5665 6.22067C7.60318 6.32267 7.58718 6.436 7.52515 6.52467C7.46313 6.61333 7.36109 6.666 7.25305 6.666H3.4769C3.36486 6.666 3.26082 6.61 3.19879 6.51667L2.26909 5.114C1.96431 4.654 1.24669 4.49067 0.874549 4.93667C0.697813 5.14867 0.624451 5.448 0.677805 5.73667L1.50213 7.88067C1.53014 7.954 1.53147 8.03533 1.50546 8.10933L0.711152 10.3827C0.629787 10.606 0.660465 10.8413 0.793851 11.0327C0.927236 11.224 1.13799 11.3333 1.37074 11.3333C1.71221 11.3333 2.025 11.1647 2.21107 10.882L3.12876 9.484C3.19079 9.39 3.29483 9.33333 3.40754 9.33333V9.332Z" fill="white"/>
</svg>
