<svg width="62" height="62" viewBox="0 0 62 62" fill="none" xmlns="http://www.w3.org/2000/svg">
<path d="M31 0C39.2217 0 47.1067 3.26606 52.9203 9.07969C58.7339 14.8933 62 22.7783 62 31C62 39.2217 58.7339 47.1067 52.9203 52.9203C47.1067 58.7339 39.2217 62 31 62C22.7783 62 14.8933 58.7339 9.07969 52.9203C3.26606 47.1067 0 39.2217 0 31C0 22.7783 3.26606 14.8933 9.07969 9.07969C14.8933 3.26606 22.7783 0 31 0ZM27.1383 37.1159L20.2519 30.225C20.005 29.9781 19.7119 29.7823 19.3893 29.6487C19.0668 29.5151 18.7211 29.4463 18.3719 29.4463C18.0228 29.4463 17.6771 29.5151 17.3545 29.6487C17.032 29.7823 16.7389 29.9781 16.492 30.225C15.9934 30.7236 15.7133 31.3998 15.7133 32.1049C15.7133 32.81 15.9934 33.4863 16.492 33.9849L25.2606 42.7534C25.5068 43.0015 25.7996 43.1985 26.1223 43.3329C26.4449 43.4672 26.791 43.5364 27.1405 43.5364C27.49 43.5364 27.8361 43.4672 28.1587 43.3329C28.4814 43.1985 28.7742 43.0015 29.0204 42.7534L47.1776 24.5919C47.4277 24.346 47.6268 24.0531 47.7632 23.7299C47.8995 23.4067 47.9706 23.0598 47.9722 22.709C47.9739 22.3583 47.906 22.0107 47.7727 21.6863C47.6393 21.3619 47.443 21.0671 47.1951 20.8189C46.9472 20.5707 46.6527 20.3741 46.3284 20.2403C46.0042 20.1066 45.6567 20.0383 45.3059 20.0395C44.9551 20.0408 44.6081 20.1114 44.2848 20.2474C43.9615 20.3834 43.6683 20.5821 43.4221 20.832L27.1383 37.1159Z" fill="#008D18"/>
</svg>
