<svg width="12" height="12" viewBox="0 0 12 12" fill="none" xmlns="http://www.w3.org/2000/svg">
<path fill-rule="evenodd" clip-rule="evenodd" d="M2 1.33333C1.63181 1.33333 1.33333 1.63181 1.33333 2V6.66667V10C1.33333 10.3682 1.63181 10.6667 2 10.6667H10C10.3682 10.6667 10.6667 10.3682 10.6667 10V6.66667V2C10.6667 1.63181 10.3682 1.33333 10 1.33333H2ZM0 2C0 0.895433 0.895433 0 2 0H10C11.1046 0 12 0.895433 12 2V6.66667V10C12 11.1046 11.1046 12 10 12H2C0.895433 12 0 11.1046 0 10V6.66667V2Z" fill="#373737"/>
</svg>
