<svg width="62" height="62" viewBox="0 0 62 62" fill="none" xmlns="http://www.w3.org/2000/svg">
<path fill-rule="evenodd" clip-rule="evenodd" d="M31 62C39.2217 62 47.1067 58.7339 52.9203 52.9203C58.7339 47.1067 62 39.2217 62 31C62 22.7783 58.7339 14.8933 52.9203 9.07969C47.1067 3.26606 39.2217 0 31 0C22.7783 0 14.8933 3.26606 9.07969 9.07969C3.26606 14.8933 0 22.7783 0 31C0 39.2217 3.26606 47.1067 9.07969 52.9203C14.8933 58.7339 22.7783 62 31 62ZM31 27.125C31.7708 27.125 32.51 27.4312 33.055 27.9762C33.6001 28.5212 33.9062 29.2605 33.9062 30.0312V43.5938C33.9062 44.3645 33.6001 45.1038 33.055 45.6488C32.51 46.1938 31.7708 46.5 31 46.5C30.2292 46.5 29.49 46.1938 28.945 45.6488C28.3999 45.1038 28.0938 44.3645 28.0938 43.5938V30.0312C28.0938 29.2605 28.3999 28.5212 28.945 27.9762C29.49 27.4312 30.2292 27.125 31 27.125ZM31 15.5C29.9723 15.5 28.9867 15.9083 28.26 16.635C27.5333 17.3617 27.125 18.3473 27.125 19.375C27.125 20.4027 27.5333 21.3883 28.26 22.115C28.9867 22.8417 29.9723 23.25 31 23.25H31.0271C32.0548 23.25 33.0405 22.8417 33.7672 22.115C34.4939 21.3883 34.9021 20.4027 34.9021 19.375C34.9021 18.3473 34.4939 17.3617 33.7672 16.635C33.0405 15.9083 32.0548 15.5 31.0271 15.5H31Z" fill="#1E90FF"/>
</svg>
