<svg width="48" height="48" viewBox="0 0 48 48" fill="none" xmlns="http://www.w3.org/2000/svg">
<path d="M48 24C48 30.3652 45.4714 36.4697 40.9706 40.9706C36.4697 45.4714 30.3652 48 24 48C17.6348 48 11.5303 45.4714 7.02944 40.9706C2.52856 36.4697 0 30.3652 0 24C0 17.6348 2.52856 11.5303 7.02944 7.02944C11.5303 2.52856 17.6348 0 24 0C30.3652 0 36.4697 2.52856 40.9706 7.02944C45.4714 11.5303 48 17.6348 48 24ZM16.488 18.099H18.963C19.377 18.099 19.707 17.76 19.761 17.349C20.031 15.381 21.381 13.947 23.787 13.947C25.845 13.947 27.729 14.976 27.729 17.451C27.729 19.356 26.607 20.232 24.834 21.564C22.815 23.031 21.216 24.744 21.33 27.525L21.339 28.176C21.3421 28.3728 21.4226 28.5605 21.5629 28.6986C21.7032 28.8367 21.8921 28.914 22.089 28.914H24.522C24.7209 28.914 24.9117 28.835 25.0523 28.6943C25.193 28.5537 25.272 28.3629 25.272 28.164V27.849C25.272 25.695 26.091 25.068 28.302 23.391C30.129 22.002 32.034 20.46 32.034 17.223C32.034 12.69 28.206 10.5 24.015 10.5C20.214 10.5 16.05 12.27 15.765 17.358C15.7609 17.4549 15.7766 17.5516 15.8113 17.6421C15.8459 17.7327 15.8987 17.8152 15.9665 17.8846C16.0342 17.9541 16.1154 18.0089 16.2051 18.0457C16.2948 18.0826 16.391 18.1007 16.488 18.099ZM23.463 37.428C25.293 37.428 26.55 36.246 26.55 34.647C26.55 32.991 25.29 31.827 23.463 31.827C21.711 31.827 20.436 32.991 20.436 34.647C20.436 36.246 21.708 37.428 23.463 37.428Z" fill="#1E90FF"/>
</svg>
