<svg width="62" height="62" viewBox="0 0 62 62" fill="none" xmlns="http://www.w3.org/2000/svg">
<path d="M31 0C39.2217 0 47.1067 3.26606 52.9203 9.07969C58.7339 14.8933 62 22.7783 62 31C62 39.2217 58.7339 47.1067 52.9203 52.9203C47.1067 58.7339 39.2217 62 31 62C22.7783 62 14.8933 58.7339 9.07969 52.9203C3.26606 47.1067 0 39.2217 0 31C0 22.7783 3.26606 14.8933 9.07969 9.07969C14.8933 3.26606 22.7783 0 31 0ZM31 13.2857C30.4377 13.2852 29.8816 13.402 29.367 13.6286C28.8524 13.8552 28.3908 14.1867 28.0115 14.6017C27.6323 15.0168 27.3438 15.5065 27.1644 16.0393C26.9851 16.5722 26.9189 17.1366 26.97 17.6966L28.5864 35.4374C28.6491 36.0339 28.9304 36.586 29.3761 36.9873C29.8218 37.3886 30.4003 37.6107 31 37.6107C31.5997 37.6107 32.1782 37.3886 32.6239 36.9873C33.0696 36.586 33.3509 36.0339 33.4136 35.4374L35.0256 17.6966C35.0767 17.137 35.0105 16.573 34.8315 16.0404C34.6524 15.5078 34.3643 15.0184 33.9855 14.6034C33.6067 14.1884 33.1456 13.8568 32.6316 13.63C32.1176 13.4031 31.5619 13.2858 31 13.2857ZM31 48.7143C31.9396 48.7143 32.8408 48.341 33.5052 47.6766C34.1696 47.0122 34.5429 46.111 34.5429 45.1714C34.5429 44.2318 34.1696 43.3307 33.5052 42.6662C32.8408 42.0018 31.9396 41.6286 31 41.6286C30.0604 41.6286 29.1592 42.0018 28.4948 42.6662C27.8304 43.3307 27.4571 44.2318 27.4571 45.1714C27.4571 46.111 27.8304 47.0122 28.4948 47.6766C29.1592 48.341 30.0604 48.7143 31 48.7143Z" fill="#D80000"/>
</svg>
