<svg width="48" height="48" viewBox="0 0 48 48" fill="none" xmlns="http://www.w3.org/2000/svg">
<path fill-rule="evenodd" clip-rule="evenodd" d="M24 48C30.3652 48 36.4697 45.4714 40.9706 40.9706C45.4714 36.4697 48 30.3652 48 24C48 17.6348 45.4714 11.5303 40.9706 7.02944C36.4697 2.52856 30.3652 0 24 0C17.6348 0 11.5303 2.52856 7.02944 7.02944C2.52856 11.5303 0 17.6348 0 24C0 30.3652 2.52856 36.4697 7.02944 40.9706C11.5303 45.4714 17.6348 48 24 48ZM24 21C24.5967 21 25.169 21.2371 25.591 21.659C26.0129 22.081 26.25 22.6533 26.25 23.25V33.75C26.25 34.3467 26.0129 34.919 25.591 35.341C25.169 35.7629 24.5967 36 24 36C23.4033 36 22.831 35.7629 22.409 35.341C21.9871 34.919 21.75 34.3467 21.75 33.75V23.25C21.75 22.6533 21.9871 22.081 22.409 21.659C22.831 21.2371 23.4033 21 24 21ZM24 12C23.2044 12 22.4413 12.3161 21.8787 12.8787C21.3161 13.4413 21 14.2044 21 15C21 15.7956 21.3161 16.5587 21.8787 17.1213C22.4413 17.6839 23.2044 18 24 18H24.021C24.8166 18 25.5797 17.6839 26.1423 17.1213C26.7049 16.5587 27.021 15.7956 27.021 15C27.021 14.2044 26.7049 13.4413 26.1423 12.8787C25.5797 12.3161 24.8166 12 24.021 12H24Z" fill="#1E90FF"/>
</svg>
