<?xml version="1.0" standalone="no"?>
<!DOCTYPE svg PUBLIC "-//W3C//DTD SVG 20010904//EN"
 "http://www.w3.org/TR/2001/REC-SVG-20010904/DTD/svg10.dtd">
<svg version="1.0" xmlns="http://www.w3.org/2000/svg"
 width="512.000000pt" height="512.000000pt" viewBox="0 0 512.000000 512.000000"
 preserveAspectRatio="xMidYMid meet">

<g transform="translate(0.000000,512.000000) scale(0.100000,-0.100000)"
fill="#000000" stroke="none">
<path d="M1845 4789 c-132 -19 -318 -93 -434 -172 -67 -45 -206 -182 -256
-252 -91 -128 -163 -306 -184 -459 -6 -42 -11 -183 -11 -311 l0 -234 -288 -3
-288 -3 -76 -37 c-91 -45 -147 -103 -191 -196 l-32 -67 0 -1216 0 -1215 37
-76 c45 -91 103 -147 196 -191 l67 -32 2175 0 2175 0 67 32 c93 44 151 100
196 191 l37 76 0 1215 0 1216 -32 67 c-44 93 -100 151 -191 196 l-76 37 -207
3 -206 4 -5 88 c-7 108 -42 193 -112 265 -37 39 -46 55 -46 84 0 62 -28 213
-53 286 -60 174 -145 304 -286 437 -129 121 -272 199 -456 250 -79 22 -92 22
-770 24 -379 1 -717 -2 -750 -7z m1345 -159 c132 -13 199 -32 315 -89 179 -88
309 -219 396 -396 42 -88 89 -237 89 -287 0 -16 -14 -18 -155 -18 l-155 0 -6
28 c-47 211 -199 376 -403 436 -48 14 -139 16 -711 16 -572 0 -663 -2 -711
-16 -204 -60 -356 -225 -403 -436 l-6 -28 -155 0 c-181 0 -168 -13 -131 133
63 249 230 454 461 568 110 54 192 78 305 89 112 11 1160 11 1270 0z m92 -507
c90 -42 150 -100 193 -186 19 -38 35 -76 35 -83 0 -11 -91 -14 -482 -16 l-483
-3 -67 -32 c-92 -43 -151 -101 -194 -189 -31 -63 -37 -85 -42 -163 l-5 -91
-319 0 -320 0 4 248 3 247 32 67 c17 37 50 87 72 111 44 48 135 101 197 116
22 5 311 9 674 8 l635 -2 67 -32z m-1842 -603 l0 -160 -160 0 -160 0 0 160 0
160 160 0 160 0 0 -160z m2549 144 c37 -10 66 -29 96 -59 60 -60 75 -114 75
-277 l0 -128 -880 0 -880 0 0 128 c0 163 15 217 75 277 75 75 54 74 801 74
572 1 667 -1 713 -15z m-1749 -1344 l0 -880 -160 0 -160 0 0 504 0 503 -23 34
c-12 18 -38 44 -56 56 -31 21 -45 23 -161 23 -116 0 -130 -2 -161 -23 -18 -12
-44 -38 -56 -56 l-23 -34 0 -503 0 -504 -80 0 -80 0 0 344 c0 340 0 343 -23
377 -12 18 -38 44 -56 56 -31 21 -45 23 -161 23 -116 0 -130 -2 -161 -23 -18
-12 -44 -38 -56 -56 -23 -34 -23 -36 -23 -400 l0 -366 -120 -120 -120 -120 0
-339 0 -339 -74 6 c-108 8 -174 48 -219 132 l-22 40 0 1185 c0 1137 1 1186 19
1220 36 69 92 114 161 131 17 4 432 7 923 8 l892 1 0 -880z m2500 856 c49 -26
88 -64 113 -111 l22 -40 0 -1185 0 -1185 -22 -40 c-45 -84 -111 -124 -219
-132 l-74 -6 0 339 0 339 -120 120 -120 120 0 903 0 904 193 -4 c163 -3 197
-6 227 -22z m-580 -936 l0 -800 -383 0 -382 0 -390 390 -390 390 -57 -57 -58
-58 332 -332 333 -333 -383 0 -382 0 0 800 0 800 880 0 880 0 0 -800z m-2400
80 l0 -80 -80 0 -80 0 0 80 0 80 80 0 80 0 0 -80z m-640 -320 l0 -80 -80 0
-80 0 0 80 0 80 80 0 80 0 0 -80z m640 -240 l0 -320 -80 0 -80 0 0 320 0 320
80 0 80 0 0 -320z m-640 -160 l0 -160 -80 0 -80 0 0 160 0 160 80 0 80 0 0
-160z m3182 -417 l98 -98 0 -302 0 -303 -1263 0 -1262 0 -400 400 -400 400
1565 0 1565 0 97 -97z m-3037 -323 l380 -380 -125 0 -125 0 -320 320 -320 320
60 60 c33 33 62 60 65 60 3 0 176 -171 385 -380z m-320 -160 l220 -220 -223 0
-222 0 0 220 c0 121 1 220 3 220 1 0 101 -99 222 -220z"/>
<path d="M2585 3495 c-16 -15 -25 -36 -25 -55 0 -19 9 -40 25 -55 15 -16 36
-25 55 -25 19 0 40 9 55 25 16 15 25 36 25 55 0 19 -9 40 -25 55 -15 16 -36
25 -55 25 -19 0 -40 -9 -55 -25z"/>
<path d="M3040 3440 l0 -80 240 0 240 0 0 80 0 80 -240 0 -240 0 0 -80z"/>
<path d="M3197 2802 l-57 -57 403 -403 402 -402 53 53 c28 29 52 57 52 62 0 6
-179 189 -398 408 l-397 397 -58 -58z"/>
<path d="M2877 2482 l-57 -57 403 -403 402 -402 53 53 c28 29 52 57 52 62 0 6
-179 189 -398 408 l-397 397 -58 -58z"/>
</g>
</svg>
